<svg width="40" height="41" viewBox="0 0 40 41" fill="none" xmlns="http://www.w3.org/2000/svg">
<rect y="0.5" width="40" height="40" rx="5" fill="#E22871"/>
<path d="M14 29.5V27.5C14 26.4391 14.4214 25.4217 15.1716 24.6716C15.9217 23.9214 16.9391 23.5 18 23.5H22M27 30.5V24.5M27 24.5L30 27.5M27 24.5L24 27.5M16 15.5C16 16.5609 16.4214 17.5783 17.1716 18.3284C17.9217 19.0786 18.9391 19.5 20 19.5C21.0609 19.5 22.0783 19.0786 22.8284 18.3284C23.5786 17.5783 24 16.5609 24 15.5C24 14.4391 23.5786 13.4217 22.8284 12.6716C22.0783 11.9214 21.0609 11.5 20 11.5C18.9391 11.5 17.9217 11.9214 17.1716 12.6716C16.4214 13.4217 16 14.4391 16 15.5Z" stroke="white" stroke-linecap="round" stroke-linejoin="round"/>
</svg>
