<svg width="48" height="41" viewBox="0 0 48 41" fill="none" xmlns="http://www.w3.org/2000/svg">
<rect x="0.699951" y="6.0293" width="29" height="35" rx="5" transform="rotate(-12 0.699951 6.0293)" fill="#BC5D00"/>
<rect x="7.3999" y="0.123047" width="40" height="40" rx="5" fill="#FF7F00"/>
<path d="M21.3999 29.123V27.123C21.3999 26.0622 21.8213 25.0448 22.5715 24.2946C23.3216 23.5445 24.339 23.123 25.3999 23.123H28.8999M37.3999 30.123L32.3999 25.123M32.3999 30.123L37.3999 25.123M23.3999 15.123C23.3999 16.1839 23.8213 17.2013 24.5715 17.9515C25.3216 18.7016 26.339 19.123 27.3999 19.123C28.4608 19.123 29.4782 18.7016 30.2283 17.9515C30.9785 17.2013 31.3999 16.1839 31.3999 15.123C31.3999 14.0622 30.9785 13.0448 30.2283 12.2946C29.4782 11.5445 28.4608 11.123 27.3999 11.123C26.339 11.123 25.3216 11.5445 24.5715 12.2946C23.8213 13.0448 23.3999 14.0622 23.3999 15.123Z" stroke="white" stroke-linecap="round" stroke-linejoin="round"/>
</svg>
