<svg width="47" height="41" viewBox="0 0 47 41" fill="none" xmlns="http://www.w3.org/2000/svg">
<rect y="6.40625" width="29" height="35" rx="5" transform="rotate(-12 0 6.40625)" fill="#1C2A76"/>
<rect x="6.69995" y="0.5" width="40" height="40" rx="5" fill="#3550DC"/>
<path d="M22.7 29.5V28.5C22.7 27.9696 22.9107 27.4609 23.2857 27.0858C23.6608 26.7107 24.1695 26.5 24.7 26.5H28.7C29.2304 26.5 29.7391 26.7107 30.1142 27.0858C30.4892 27.4609 30.7 27.9696 30.7 28.5V29.5M31.7 18.5H33.7C34.2304 18.5 34.7391 18.7107 35.1142 19.0858C35.4892 19.4609 35.7 19.9696 35.7 20.5V21.5M17.7 21.5V20.5C17.7 19.9696 17.9107 19.4609 18.2857 19.0858C18.6608 18.7107 19.1695 18.5 19.7 18.5H21.7M24.7 21.5C24.7 22.0304 24.9107 22.5391 25.2857 22.9142C25.6608 23.2893 26.1695 23.5 26.7 23.5C27.2304 23.5 27.7391 23.2893 28.1142 22.9142C28.4892 22.5391 28.7 22.0304 28.7 21.5C28.7 20.9696 28.4892 20.4609 28.1142 20.0858C27.7391 19.7107 27.2304 19.5 26.7 19.5C26.1695 19.5 25.6608 19.7107 25.2857 20.0858C24.9107 20.4609 24.7 20.9696 24.7 21.5ZM29.7 13.5C29.7 14.0304 29.9107 14.5391 30.2857 14.9142C30.6608 15.2893 31.1695 15.5 31.7 15.5C32.2304 15.5 32.7391 15.2893 33.1142 14.9142C33.4892 14.5391 33.7 14.0304 33.7 13.5C33.7 12.9696 33.4892 12.4609 33.1142 12.0858C32.7391 11.7107 32.2304 11.5 31.7 11.5C31.1695 11.5 30.6608 11.7107 30.2857 12.0858C29.9107 12.4609 29.7 12.9696 29.7 13.5ZM19.7 13.5C19.7 14.0304 19.9107 14.5391 20.2857 14.9142C20.6608 15.2893 21.1695 15.5 21.7 15.5C22.2304 15.5 22.7391 15.2893 23.1142 14.9142C23.4892 14.5391 23.7 14.0304 23.7 13.5C23.7 12.9696 23.4892 12.4609 23.1142 12.0858C22.7391 11.7107 22.2304 11.5 21.7 11.5C21.1695 11.5 20.6608 11.7107 20.2857 12.0858C19.9107 12.4609 19.7 12.9696 19.7 13.5Z" stroke="white" stroke-linecap="round" stroke-linejoin="round"/>
</svg>
