<svg width="47" height="41" viewBox="0 0 47 41" fill="none" xmlns="http://www.w3.org/2000/svg">
<rect y="6.0293" width="29" height="35" rx="5" transform="rotate(-12 0 6.0293)" fill="#A30A46"/>
<rect x="6.69995" y="0.123047" width="40" height="40" rx="5" fill="#E22871"/>
<path d="M20.7 29.123V27.123C20.7 26.0622 21.1214 25.0448 21.8715 24.2946C22.6217 23.5445 23.6391 23.123 24.7 23.123H28.7M33.7 30.123V24.123M33.7 24.123L36.7 27.123M33.7 24.123L30.7 27.123M22.7 15.123C22.7 16.1839 23.1214 17.2013 23.8715 17.9515C24.6217 18.7016 25.6391 19.123 26.7 19.123C27.7608 19.123 28.7782 18.7016 29.5284 17.9515C30.2785 17.2013 30.7 16.1839 30.7 15.123C30.7 14.0622 30.2785 13.0448 29.5284 12.2946C28.7782 11.5445 27.7608 11.123 26.7 11.123C25.6391 11.123 24.6217 11.5445 23.8715 12.2946C23.1214 13.0448 22.7 14.0622 22.7 15.123Z" stroke="white" stroke-linecap="round" stroke-linejoin="round"/>
</svg>
