<svg width="48" height="41" viewBox="0 0 48 41" fill="none" xmlns="http://www.w3.org/2000/svg">
<rect x="0.699951" y="6.0293" width="29" height="35" rx="5" transform="rotate(-12 0.699951 6.0293)" fill="#105335"/>
<rect x="7.3999" y="0.123047" width="40" height="40" rx="5" fill="#01B664"/>
<path d="M21.3999 29.123V27.123C21.3999 26.0622 21.8213 25.0448 22.5715 24.2946C23.3216 23.5445 24.339 23.123 25.3999 23.123H25.8999M23.3999 15.123C23.3999 16.1839 23.8213 17.2013 24.5715 17.9515C25.3216 18.7016 26.339 19.123 27.3999 19.123C28.4608 19.123 29.4782 18.7016 30.2283 17.9515C30.9785 17.2013 31.3999 16.1839 31.3999 15.123C31.3999 14.0622 30.9785 13.0448 30.2283 12.2946C29.4782 11.5445 28.4608 11.123 27.3999 11.123C26.339 11.123 25.3216 11.5445 24.5715 12.2946C23.8213 13.0448 23.3999 14.0622 23.3999 15.123ZM33.1999 28.94L31.0279 30.078C30.9634 30.1116 30.8909 30.1265 30.8185 30.1213C30.746 30.116 30.6764 30.0907 30.6175 30.0481C30.5586 30.0056 30.5126 29.9475 30.4848 29.8804C30.457 29.8133 30.4484 29.7398 30.4599 29.668L30.8749 27.257L29.1179 25.55C29.0655 25.4993 29.0283 25.4349 29.0107 25.3641C28.9932 25.2933 28.9958 25.219 29.0185 25.1497C29.0411 25.0803 29.0828 25.0187 29.1387 24.9719C29.1947 24.9252 29.2627 24.895 29.3349 24.885L31.7629 24.533L32.8489 22.34C32.8814 22.2747 32.9314 22.2197 32.9935 22.1813C33.0555 22.1429 33.127 22.1226 33.1999 22.1226C33.2728 22.1226 33.3443 22.1429 33.4064 22.1813C33.4684 22.2197 33.5184 22.2747 33.5509 22.34L34.6369 24.533L37.0649 24.885C37.1369 24.8954 37.2046 24.9257 37.2604 24.9725C37.3161 25.0194 37.3576 25.0809 37.3801 25.1501C37.4027 25.2193 37.4055 25.2934 37.3881 25.3641C37.3708 25.4347 37.334 25.4992 37.2819 25.55L35.5249 27.257L35.9389 29.667C35.9513 29.7389 35.9434 29.8128 35.9159 29.8804C35.8884 29.9479 35.8425 30.0064 35.7835 30.0492C35.7244 30.092 35.6546 30.1174 35.5818 30.1225C35.5091 30.1276 35.4363 30.1122 35.3719 30.078L33.1999 28.94Z" stroke="white" stroke-linecap="round" stroke-linejoin="round"/>
</svg>
