<svg width="40" height="40" viewBox="0 0 40 40" fill="none" xmlns="http://www.w3.org/2000/svg">
<rect width="40" height="40" rx="20" fill="#EDF1FE"/>
<rect x="4" y="4" width="32" height="32" rx="16" fill="#3550DC"/>
<path d="M22 14V16.6667C22 16.8435 22.0702 17.013 22.1952 17.1381C22.3203 17.2631 22.4898 17.3333 22.6666 17.3333H25.3333M22 14H19.3333C18.9797 14 18.6406 14.1405 18.3905 14.3905C18.1405 14.6406 18 14.9797 18 15.3333V22C18 22.3536 18.1405 22.6928 18.3905 22.9428C18.6406 23.1929 18.9797 23.3333 19.3333 23.3333H24C24.3536 23.3333 24.6927 23.1929 24.9428 22.9428C25.1928 22.6928 25.3333 22.3536 25.3333 22V17.3333M22 14L25.3333 17.3333M22.6666 23.3333V24.6667C22.6666 25.0203 22.5262 25.3594 22.2761 25.6095C22.0261 25.8595 21.6869 26 21.3333 26H16.6666C16.313 26 15.9739 25.8595 15.7238 25.6095C15.4738 25.3594 15.3333 25.0203 15.3333 24.6667V18C15.3333 17.6464 15.4738 17.3072 15.7238 17.0572C15.9739 16.8071 16.313 16.6667 16.6666 16.6667H18" stroke="white" stroke-width="2" stroke-linecap="round" stroke-linejoin="round"/>
</svg>
