<svg width="40" height="41" viewBox="0 0 40 41" fill="none" xmlns="http://www.w3.org/2000/svg">
<rect y="0.5" width="40" height="40" rx="20" fill="#E9F9F2"/>
<rect x="4" y="4.5" width="32" height="32" rx="16" fill="#01B664"/>
<path d="M22 23.5473V25.1607C21.9996 25.5157 21.8584 25.8561 21.6073 26.1071C21.3562 26.3581 21.0157 26.4992 20.6607 26.4993H15.34C14.9847 26.4993 14.644 26.3583 14.3927 26.1071C14.1414 25.856 14.0002 25.5153 14 25.16V19.8393C14 19.4841 14.1411 19.1433 14.3922 18.8921C14.6434 18.6408 14.9841 18.4995 15.3393 18.4993H17.3087M18.1113 15.5067C18.2049 15.1588 18.4327 14.8623 18.7447 14.6822C19.0566 14.5021 19.4273 14.4531 19.7753 14.546L24.9927 15.944C25.3405 16.0376 25.637 16.2654 25.8171 16.5773C25.9972 16.8893 26.0462 17.26 25.9533 17.608L24.5553 22.8253C24.4617 23.1732 24.234 23.4697 23.922 23.6498C23.61 23.8299 23.2394 23.8789 22.8913 23.786L17.6733 22.388C17.3255 22.2944 17.029 22.0666 16.8489 21.7547C16.6688 21.4427 16.6198 21.072 16.7127 20.724L18.1113 15.5067Z" stroke="white" stroke-width="2" stroke-linecap="round" stroke-linejoin="round"/>
</svg>
