<svg width="40" height="40" viewBox="0 0 40 40" fill="none" xmlns="http://www.w3.org/2000/svg">
<rect width="40" height="40" rx="20" fill="#EBF4FF"/>
<rect x="4" y="4" width="32" height="32" rx="16" fill="#0080FF"/>
<path d="M16 26V24.6667C16 23.9594 16.281 23.2811 16.781 22.781C17.2811 22.281 17.9594 22 18.6667 22H19M17.3333 16.6667C17.3333 17.3739 17.6143 18.0522 18.1144 18.5523C18.6145 19.0524 19.2928 19.3333 20 19.3333C20.7072 19.3333 21.3855 19.0524 21.8856 18.5523C22.3857 18.0522 22.6667 17.3739 22.6667 16.6667C22.6667 15.9594 22.3857 15.2811 21.8856 14.781C21.3855 14.281 20.7072 14 20 14C19.2928 14 18.6145 14.281 18.1144 14.781C17.6143 15.2811 17.3333 15.9594 17.3333 16.6667ZM23.8667 25.878L22.4187 26.6366C22.3757 26.659 22.3274 26.669 22.279 26.6655C22.2307 26.662 22.1843 26.6451 22.1451 26.6167C22.1058 26.5884 22.0752 26.5497 22.0566 26.5049C22.0381 26.4602 22.0323 26.4111 22.04 26.3633L22.3167 24.756L21.1453 23.618C21.1104 23.5842 21.0856 23.5412 21.0739 23.494C21.0622 23.4468 21.064 23.3973 21.079 23.3511C21.0941 23.3049 21.1219 23.2638 21.1592 23.2326C21.1965 23.2014 21.2418 23.1813 21.29 23.1746L22.9087 22.94L23.6327 21.478C23.6543 21.4344 23.6877 21.3978 23.729 21.3722C23.7704 21.3466 23.818 21.333 23.8667 21.333C23.9153 21.333 23.963 21.3466 24.0043 21.3722C24.0456 21.3978 24.079 21.4344 24.1007 21.478L24.8247 22.94L26.4433 23.1746C26.4914 23.1816 26.5365 23.2018 26.5736 23.233C26.6108 23.2642 26.6384 23.3052 26.6535 23.3513C26.6685 23.3975 26.6704 23.4469 26.6588 23.494C26.6472 23.5411 26.6227 23.5841 26.588 23.618L25.4167 24.756L25.6927 26.3626C25.701 26.4106 25.6956 26.4598 25.6773 26.5049C25.659 26.5499 25.6284 26.5889 25.5891 26.6175C25.5497 26.646 25.5031 26.6629 25.4546 26.6663C25.4061 26.6697 25.3576 26.6594 25.3147 26.6366L23.8667 25.878Z" stroke="white" stroke-width="2" stroke-linecap="round" stroke-linejoin="round"/>
</svg>
