<svg width="40" height="41" viewBox="0 0 40 41" fill="none" xmlns="http://www.w3.org/2000/svg">
<rect y="0.5" width="40" height="40" rx="20" fill="#F3E9FF"/>
<rect x="4" y="4.5" width="32" height="32" rx="16" fill="#8000FF"/>
<path d="M20 17.1667V20.5L22 22.5M14 20.5C14 21.2879 14.1552 22.0681 14.4567 22.7961C14.7583 23.5241 15.2002 24.1855 15.7574 24.7426C16.3145 25.2998 16.9759 25.7417 17.7039 26.0433C18.4319 26.3448 19.2121 26.5 20 26.5C20.7879 26.5 21.5681 26.3448 22.2961 26.0433C23.0241 25.7417 23.6855 25.2998 24.2426 24.7426C24.7998 24.1855 25.2417 23.5241 25.5433 22.7961C25.8448 22.0681 26 21.2879 26 20.5C26 18.9087 25.3679 17.3826 24.2426 16.2574C23.1174 15.1321 21.5913 14.5 20 14.5C18.4087 14.5 16.8826 15.1321 15.7574 16.2574C14.6321 17.3826 14 18.9087 14 20.5Z" stroke="white" stroke-width="2" stroke-linecap="round" stroke-linejoin="round"/>
</svg>
