<svg width="40" height="41" viewBox="0 0 40 41" fill="none" xmlns="http://www.w3.org/2000/svg">
<rect y="0.5" width="40" height="40" rx="20" fill="#FFEEF1"/>
<rect x="4" y="4.5" width="32" height="32" rx="16" fill="#E22871"/>
<g clip-path="url(#clip0_10189_52595)">
<path d="M16 26.5V25.1667C16 24.4594 16.281 23.7811 16.781 23.281C17.2811 22.781 17.9594 22.5 18.6667 22.5H21M17.3333 17.1667C17.3333 17.8739 17.6143 18.5522 18.1144 19.0523C18.6145 19.5524 19.2928 19.8333 20 19.8333C20.7072 19.8333 21.3855 19.5524 21.8856 19.0523C22.3857 18.5522 22.6667 17.8739 22.6667 17.1667C22.6667 16.4594 22.3857 15.7811 21.8856 15.281C21.3855 14.781 20.7072 14.5 20 14.5C19.2928 14.5 18.6145 14.781 18.1144 15.281C17.6143 15.7811 17.3333 16.4594 17.3333 17.1667ZM24.28 22.9067C24.41 22.7766 24.5644 22.6735 24.7342 22.6032C24.9041 22.5328 25.0861 22.4966 25.27 22.4966C25.4539 22.4966 25.6359 22.5328 25.8058 22.6032C25.9756 22.6735 26.13 22.7766 26.26 22.9067C26.39 23.0367 26.4931 23.191 26.5635 23.3609C26.6339 23.5307 26.6701 23.7128 26.6701 23.8967C26.6701 24.0805 26.6339 24.2626 26.5635 24.4324C26.4931 24.6023 26.39 24.7566 26.26 24.8867L24 27.1667H22V25.1667L24.28 22.9067Z" stroke="white" stroke-width="2" stroke-linecap="round" stroke-linejoin="round"/>
</g>
<defs>
<clipPath id="clip0_10189_52595">
<rect width="16" height="16" fill="white" transform="translate(12 12.5)"/>
</clipPath>
</defs>
</svg>
