<svg width="40" height="41" viewBox="0 0 40 41" fill="none" xmlns="http://www.w3.org/2000/svg">
<rect y="0.5" width="40" height="40" rx="20" fill="#FFFAF6"/>
<rect x="4" y="4.5" width="32" height="32" rx="16" fill="#FE9738"/>
<path d="M18.3334 14.5H21.6667C21.9319 14.5 22.1863 14.6054 22.3738 14.7929C22.5613 14.9804 22.6667 15.2348 22.6667 15.5C22.6667 16.1188 22.4209 16.7123 21.9833 17.1499C21.5457 17.5875 20.9522 17.8333 20.3334 17.8333H19.6667C19.0478 17.8333 18.4544 17.5875 18.0168 17.1499C17.5792 16.7123 17.3334 16.1188 17.3334 15.5C17.3334 15.2348 17.4387 14.9804 17.6262 14.7929C17.8138 14.6054 18.0681 14.5 18.3334 14.5Z" stroke="white" stroke-width="2" stroke-linecap="round" stroke-linejoin="round"/>
<path d="M14.6667 23.8333V23.1667C14.6667 21.7522 15.2286 20.3956 16.2288 19.3954C17.229 18.3952 18.5855 17.8333 20 17.8333C21.4145 17.8333 22.7711 18.3952 23.7713 19.3954C24.7715 20.3956 25.3334 21.7522 25.3334 23.1667V23.8333C25.3334 24.5406 25.0524 25.2189 24.5523 25.719C24.0522 26.219 23.3739 26.5 22.6667 26.5H17.3334C16.6261 26.5 15.9478 26.219 15.4477 25.719C14.9476 25.2189 14.6667 24.5406 14.6667 23.8333Z" stroke="white" stroke-width="2" stroke-linecap="round" stroke-linejoin="round"/>
</svg>
