<svg width="48" height="49" viewBox="0 0 48 49" fill="none" xmlns="http://www.w3.org/2000/svg">
<path d="M19 3.38675C22.094 1.60042 25.906 1.60042 29 3.38675L39.7846 9.61325C42.8786 11.3996 44.7846 14.7008 44.7846 18.2735V30.7265C44.7846 34.2992 42.8786 37.6004 39.7846 39.3868L29 45.6132C25.906 47.3996 22.094 47.3996 19 45.6132L8.21539 39.3868C5.12138 37.6004 3.21539 34.2992 3.21539 30.7265V18.2735C3.21539 14.7008 5.12138 11.3996 8.21539 9.61325L19 3.38675Z" fill="#8000FF"/>
<path d="M20 33.5V32.5C20 31.9696 20.2107 31.4609 20.5858 31.0858C20.9609 30.7107 21.4696 30.5 22 30.5H26C26.5304 30.5 27.0391 30.7107 27.4142 31.0858C27.7893 31.4609 28 31.9696 28 32.5V33.5M29 22.5H31C31.5304 22.5 32.0391 22.7107 32.4142 23.0858C32.7893 23.4609 33 23.9696 33 24.5V25.5M15 25.5V24.5C15 23.9696 15.2107 23.4609 15.5858 23.0858C15.9609 22.7107 16.4696 22.5 17 22.5H19M22 25.5C22 26.0304 22.2107 26.5391 22.5858 26.9142C22.9609 27.2893 23.4696 27.5 24 27.5C24.5304 27.5 25.0391 27.2893 25.4142 26.9142C25.7893 26.5391 26 26.0304 26 25.5C26 24.9696 25.7893 24.4609 25.4142 24.0858C25.0391 23.7107 24.5304 23.5 24 23.5C23.4696 23.5 22.9609 23.7107 22.5858 24.0858C22.2107 24.4609 22 24.9696 22 25.5ZM27 17.5C27 18.0304 27.2107 18.5391 27.5858 18.9142C27.9609 19.2893 28.4696 19.5 29 19.5C29.5304 19.5 30.0391 19.2893 30.4142 18.9142C30.7893 18.5391 31 18.0304 31 17.5C31 16.9696 30.7893 16.4609 30.4142 16.0858C30.0391 15.7107 29.5304 15.5 29 15.5C28.4696 15.5 27.9609 15.7107 27.5858 16.0858C27.2107 16.4609 27 16.9696 27 17.5ZM17 17.5C17 18.0304 17.2107 18.5391 17.5858 18.9142C17.9609 19.2893 18.4696 19.5 19 19.5C19.5304 19.5 20.0391 19.2893 20.4142 18.9142C20.7893 18.5391 21 18.0304 21 17.5C21 16.9696 20.7893 16.4609 20.4142 16.0858C20.0391 15.7107 19.5304 15.5 19 15.5C18.4696 15.5 17.9609 15.7107 17.5858 16.0858C17.2107 16.4609 17 16.9696 17 17.5Z" stroke="white" stroke-linecap="round" stroke-linejoin="round"/>
</svg>
