<svg width="49" height="49" viewBox="0 0 49 49" fill="none" xmlns="http://www.w3.org/2000/svg">
<path d="M19.5 3.38675C22.594 1.60042 26.406 1.60042 29.5 3.38675L40.2846 9.61325C43.3786 11.3996 45.2846 14.7008 45.2846 18.2735V30.7265C45.2846 34.2992 43.3786 37.6004 40.2846 39.3868L29.5 45.6132C26.406 47.3996 22.594 47.3996 19.5 45.6132L8.71539 39.3868C5.62138 37.6004 3.71539 34.2992 3.71539 30.7265V18.2735C3.71539 14.7008 5.62138 11.3996 8.71539 9.61325L19.5 3.38675Z" fill="#FF7F00"/>
<path d="M18.5 33.5V31.5C18.5 30.4391 18.9214 29.4217 19.6716 28.6716C20.4217 27.9214 21.4391 27.5 22.5 27.5H26M34.5 34.5L29.5 29.5M29.5 34.5L34.5 29.5M20.5 19.5C20.5 20.5609 20.9214 21.5783 21.6716 22.3284C22.4217 23.0786 23.4391 23.5 24.5 23.5C25.5609 23.5 26.5783 23.0786 27.3284 22.3284C28.0786 21.5783 28.5 20.5609 28.5 19.5C28.5 18.4391 28.0786 17.4217 27.3284 16.6716C26.5783 15.9214 25.5609 15.5 24.5 15.5C23.4391 15.5 22.4217 15.9214 21.6716 16.6716C20.9214 17.4217 20.5 18.4391 20.5 19.5Z" stroke="white" stroke-linecap="round" stroke-linejoin="round"/>
</svg>
