<svg width="49" height="49" viewBox="0 0 49 49" fill="none" xmlns="http://www.w3.org/2000/svg">
<path d="M19.75 3.38675C22.844 1.60042 26.656 1.60042 29.75 3.38675L40.5346 9.61325C43.6286 11.3996 45.5346 14.7008 45.5346 18.2735V30.7265C45.5346 34.2992 43.6286 37.6004 40.5346 39.3868L29.75 45.6132C26.656 47.3996 22.844 47.3996 19.75 45.6132L8.96539 39.3868C5.87138 37.6004 3.96539 34.2992 3.96539 30.7265V18.2735C3.96539 14.7008 5.87138 11.3996 8.96539 9.61325L19.75 3.38675Z" fill="#E22871"/>
<path d="M18.75 33.5V31.5C18.75 30.4391 19.1714 29.4217 19.9216 28.6716C20.6717 27.9214 21.6891 27.5 22.75 27.5H26.75M31.75 34.5V28.5M31.75 28.5L34.75 31.5M31.75 28.5L28.75 31.5M20.75 19.5C20.75 20.5609 21.1714 21.5783 21.9216 22.3284C22.6717 23.0786 23.6891 23.5 24.75 23.5C25.8109 23.5 26.8283 23.0786 27.5784 22.3284C28.3286 21.5783 28.75 20.5609 28.75 19.5C28.75 18.4391 28.3286 17.4217 27.5784 16.6716C26.8283 15.9214 25.8109 15.5 24.75 15.5C23.6891 15.5 22.6717 15.9214 21.9216 16.6716C21.1714 17.4217 20.75 18.4391 20.75 19.5Z" stroke="white" stroke-linecap="round" stroke-linejoin="round"/>
</svg>
