<svg width="49" height="49" viewBox="0 0 49 49" fill="none" xmlns="http://www.w3.org/2000/svg">
<path d="M19.25 3.38675C22.344 1.60042 26.156 1.60042 29.25 3.38675L40.0346 9.61325C43.1286 11.3996 45.0346 14.7008 45.0346 18.2735V30.7265C45.0346 34.2992 43.1286 37.6004 40.0346 39.3868L29.25 45.6132C26.156 47.3996 22.344 47.3996 19.25 45.6132L8.46539 39.3868C5.37138 37.6004 3.46539 34.2992 3.46539 30.7265V18.2735C3.46539 14.7008 5.37138 11.3996 8.46539 9.61325L19.25 3.38675Z" fill="#01B664"/>
<path d="M18.25 33.5V31.5C18.25 30.4391 18.6714 29.4217 19.4216 28.6716C20.1717 27.9214 21.1891 27.5 22.25 27.5H22.75M20.25 19.5C20.25 20.5609 20.6714 21.5783 21.4216 22.3284C22.1717 23.0786 23.1891 23.5 24.25 23.5C25.3109 23.5 26.3283 23.0786 27.0784 22.3284C27.8286 21.5783 28.25 20.5609 28.25 19.5C28.25 18.4391 27.8286 17.4217 27.0784 16.6716C26.3283 15.9214 25.3109 15.5 24.25 15.5C23.1891 15.5 22.1717 15.9214 21.4216 16.6716C20.6714 17.4217 20.25 18.4391 20.25 19.5ZM30.05 33.317L27.878 34.455C27.8135 34.4885 27.741 34.5035 27.6686 34.4982C27.5961 34.4929 27.5265 34.4676 27.4676 34.4251C27.4087 34.3826 27.3627 34.3245 27.3349 34.2574C27.3071 34.1903 27.2985 34.1167 27.31 34.045L27.725 31.634L25.968 29.927C25.9156 29.8763 25.8784 29.8119 25.8608 29.7411C25.8433 29.6703 25.8459 29.596 25.8686 29.5266C25.8912 29.4573 25.9329 29.3957 25.9888 29.3489C26.0448 29.3021 26.1127 29.272 26.185 29.262L28.613 28.91L29.699 26.717C29.7315 26.6517 29.7815 26.5967 29.8435 26.5583C29.9056 26.5199 29.9771 26.4995 30.05 26.4995C30.1229 26.4995 30.1944 26.5199 30.2565 26.5583C30.3185 26.5967 30.3685 26.6517 30.401 26.717L31.487 28.91L33.915 29.262C33.987 29.2723 34.0547 29.3027 34.1105 29.3495C34.1662 29.3963 34.2077 29.4578 34.2302 29.527C34.2528 29.5962 34.2556 29.6703 34.2382 29.741C34.2209 29.8117 34.1841 29.8761 34.132 29.927L32.375 31.634L32.789 34.044C32.8014 34.1158 32.7935 34.1898 32.766 34.2573C32.7385 34.3249 32.6926 34.3834 32.6336 34.4262C32.5745 34.469 32.5047 34.4944 32.4319 34.4995C32.3592 34.5046 32.2864 34.4891 32.222 34.455L30.05 33.317Z" stroke="white" stroke-linecap="round" stroke-linejoin="round"/>
</svg>
