<svg width="85" height="33" viewBox="0 0 85 33" fill="none" xmlns="http://www.w3.org/2000/svg">
<path d="M81.4553 3.56062L3.96565 4.44582C3.73558 4.44773 3.55035 4.63164 3.5529 4.85563L3.80368 29.0341C3.80554 29.2569 3.9953 29.437 4.22537 29.4351L81.715 28.5499C81.9454 28.547 82.1296 28.3629 82.1268 28.1398L81.876 3.96132C81.8732 3.73826 81.6854 3.5587 81.4553 3.56062ZM81.1318 27.5956L4.78416 28.468L4.5447 5.39996L80.8933 4.52787L81.1318 27.5956ZM81.4256 0.765843L3.93595 1.65105C2.11779 1.67145 0.659966 3.12084 0.678893 4.88914L0.928711 29.0674C0.947638 30.8357 2.4354 32.2519 4.25288 32.2303L81.7435 31.3453C83.5597 31.3244 85.0188 29.8743 85.0003 28.1082L84.7498 3.92872C84.7318 2.16067 83.2438 0.745437 81.4256 0.765843ZM82.6749 28.1337C82.6805 28.6515 82.2526 29.0774 81.7201 29.0838L4.23048 29.969C3.69726 29.9741 3.26001 29.5588 3.25536 29.0412L3.00458 4.86269C2.99994 4.34511 3.4287 3.91947 3.96026 3.91289L81.4499 3.02768C81.9812 3.02204 82.4194 3.43761 82.4241 3.95519L82.6749 28.1337Z" fill="#57B543"/>
<path d="M15.6565 20.3867L17.0851 20.3716L17.0052 12.2567L15.6215 12.2709L15.5894 9.12653L21.5547 9.06525C21.6205 9.06407 21.6955 9.06338 21.7746 9.06282C21.8537 9.06225 21.9195 9.06106 21.9705 9.06086C22.0236 9.06026 22.0986 9.05958 22.1964 9.05908C22.5941 9.05984 22.9912 9.05538 23.3874 9.04666C23.7842 9.03607 24.1734 9.04461 24.5563 9.07468C24.9373 9.10422 25.309 9.13727 25.6709 9.17877C26.0302 9.21854 26.3747 9.29164 26.7041 9.39498C27.031 9.49966 27.3361 9.62258 27.6178 9.76844C27.9008 9.91363 28.1591 10.1046 28.3932 10.3395C28.6292 10.5749 28.83 10.8421 28.9974 11.1385C29.1658 11.4383 29.2984 11.7939 29.397 12.2089C29.4978 12.6235 29.5517 13.0819 29.5626 13.5881C29.5836 14.4669 29.4555 15.2261 29.1788 15.8678C28.901 16.5092 28.4908 17.0203 27.9483 17.4003C27.4057 17.7802 26.7729 18.0597 26.0505 18.2398C25.3284 18.419 24.5 18.5135 23.5653 18.5233C23.1318 18.5279 22.6726 18.5032 22.1887 18.4485L22.2074 20.3191L23.5462 20.3057L23.5773 23.5033L15.6914 23.5854L15.6565 20.3867ZM22.1575 15.5449L22.5337 15.5408C23.9196 15.5262 24.606 14.9229 24.5962 13.7299C24.5913 13.196 24.4244 12.8047 24.0983 12.5578C23.7716 12.3127 23.3704 12.1917 22.8945 12.1958L22.1253 12.2045L22.1575 15.5449Z" fill="#57B543"/>
<path d="M43.5709 19.3138C43.6231 19.4988 43.6659 19.6379 43.6988 19.7318C43.7347 19.8265 43.7852 19.91 43.8533 19.9832C43.9214 20.0565 44.0003 20.0922 44.0918 20.092L44.8797 20.0834L44.9127 23.2816L37.3457 23.36L37.3045 20.1616L38.4038 20.1504C38.3944 19.1777 38.1844 18.6918 37.7749 18.6959L35.2575 18.722C35.1784 18.7226 35.116 18.755 35.074 18.8173C35.0336 18.881 35.0088 18.9449 35.0034 19.0101C34.9989 19.0756 34.9911 19.1705 34.9869 19.2956C34.9895 19.4621 35.0239 19.6514 35.0936 19.8655C35.1636 20.0787 35.2611 20.1831 35.3892 20.1819L36.1581 20.1741L36.1911 23.3723L29.9797 23.4369L29.9487 20.2393C30.2173 20.237 30.4548 20.2101 30.6613 20.1605C31.1379 20.0435 31.4725 19.7572 31.6706 19.3041C31.7362 19.1604 31.8477 18.7766 32.0075 18.1514L33.5221 12.0858L31.5808 12.106L31.5488 8.96168L40.6539 8.86684L43.5709 19.3138ZM37.5792 16.4727L36.4618 11.958L35.4807 16.4943L37.5792 16.4727Z" fill="#57B543"/>
<path d="M54.2547 11.8709L52.9076 11.884L52.9895 19.9996L54.2815 19.9865L54.3126 23.1841L46.4162 23.2664L46.3852 20.0687L47.7303 20.0551L47.6503 11.9401L46.3397 11.9531L46.3074 8.80968L54.2224 8.72751L54.2547 11.8709Z" fill="#57B543"/>
<path d="M56.6539 19.9608L58.1481 19.9455L58.0667 11.8211L56.5182 11.8376L56.4876 8.70277L64.0909 8.62419C66.6065 8.59753 68.4958 9.18862 69.7606 10.3959C71.0253 11.6031 71.6687 13.3829 71.6923 15.7338C71.7028 16.7027 71.5438 17.6221 71.2164 18.4915C70.8908 19.3623 70.415 20.1384 69.7937 20.8181C69.1702 21.4982 68.3646 22.0436 67.3716 22.4508C66.3802 22.8594 65.268 23.0692 64.0352 23.0823L56.6882 23.1583L56.6539 19.9608ZM63.4799 19.8907C63.9257 19.8864 64.316 19.7983 64.6531 19.6248C64.9909 19.4525 65.2605 19.2323 65.4571 18.9668C65.6578 18.7014 65.8188 18.3797 65.9425 18.0074C66.0689 17.6368 66.1505 17.2701 66.1939 16.9131C66.2358 16.5578 66.2551 16.1801 66.2501 15.7826C66.2476 15.3727 66.2247 14.9976 66.1859 14.6555C66.1443 14.3157 66.0655 13.9576 65.9493 13.5853C65.8321 13.2126 65.6784 12.8977 65.4869 12.6412C65.2955 12.3847 65.0306 12.1737 64.6931 12.0085C64.356 11.8424 63.9618 11.7618 63.5096 11.7663L63.078 11.7714L63.1594 19.8959L63.4799 19.8907Z" fill="#57B543"/>
</svg>
