<svg width="48" height="49" viewBox="0 0 48 49" fill="none" xmlns="http://www.w3.org/2000/svg">
<rect x="0.5" y="0.589844" width="47" height="47" rx="23.5" fill="white"/>
<rect x="0.5" y="0.589844" width="47" height="47" rx="23.5" stroke="#E8E8E8"/>
<path fill-rule="evenodd" clip-rule="evenodd" d="M16.1668 29.0127H13.4551L11.4216 21.255C11.3251 20.8981 11.1202 20.5826 10.8187 20.434C10.0665 20.0603 9.23747 19.7629 8.33313 19.6129V19.3143H12.7015C13.3044 19.3143 13.7565 19.7629 13.8319 20.284L14.887 25.8799L17.5973 19.3143H20.2337L16.1668 29.0127ZM21.741 29.0127H19.18L21.2888 19.3143H23.8498L21.741 29.0127ZM27.1633 22.0003C27.2387 21.4779 27.6908 21.1793 28.2184 21.1793C29.0473 21.1043 29.9504 21.2542 30.704 21.6266L31.1561 19.5385C30.4025 19.2398 29.5735 19.0898 28.8213 19.0898C26.3356 19.0898 24.5269 20.4332 24.5269 22.2977C24.5269 23.716 25.8081 24.4608 26.7124 24.9094C27.6908 25.3568 28.0676 25.6555 27.9923 26.1028C27.9923 26.7739 27.2387 27.0725 26.4864 27.0725C25.582 27.0725 24.6777 26.8489 23.85 26.4752L23.3978 28.5646C24.3022 28.937 25.2806 29.087 26.1849 29.087C28.972 29.1607 30.704 27.8186 30.704 25.8041C30.704 23.2674 27.1633 23.1187 27.1633 22.0003ZM39.6668 29.0127L37.6333 19.3143H35.4492C34.997 19.3143 34.5448 19.6129 34.3941 20.0603L30.6286 29.0127H33.265L33.7912 27.5956H37.0304L37.3319 29.0127H39.6668ZM35.8255 21.9261L36.5778 25.5813H34.469L35.8255 21.9261Z" fill="#172B85"/>
</svg>
