<svg width="48" height="49" viewBox="0 0 48 49" fill="none" xmlns="http://www.w3.org/2000/svg">
<rect x="0.5" y="1.40234" width="47" height="47" rx="23.5" fill="white"/>
<rect x="0.5" y="1.40234" width="47" height="47" rx="23.5" stroke="#E8E8E8"/>
<path d="M27.2056 19.9023C29.9353 19.9023 32.1489 22.1409 32.1489 24.9023C32.1489 27.6638 29.9354 29.9023 27.2056 29.9023C25.9817 29.9022 24.8627 29.4514 23.9995 28.7061C23.1363 29.4513 22.0172 29.9023 20.7935 29.9023C18.0638 29.9022 15.8511 27.6637 15.8511 24.9023C15.8511 22.141 18.0639 19.9025 20.7935 19.9023C22.017 19.9023 23.1364 20.3527 23.9995 21.0977C24.8626 20.3526 25.982 19.9024 27.2056 19.9023Z" fill="#ED0006"/>
<path d="M27.2059 19.9023C29.9357 19.9023 32.1483 22.1409 32.1483 24.9023C32.1483 27.6638 29.9357 29.9023 27.2059 29.9023C25.9821 29.9023 24.8631 29.4514 23.9999 28.7061C25.0621 27.7889 25.7362 26.4257 25.7362 24.9023C25.7362 23.3789 25.0621 22.0157 23.9999 21.0986C24.8631 20.3534 25.9821 19.9024 27.2059 19.9023Z" fill="#F9A000"/>
<path d="M23.9996 21.0977C25.0621 22.0148 25.7369 23.3787 25.7369 24.9023C25.7368 26.4255 25.0617 27.7881 23.9996 28.7051C22.9378 27.7881 22.2634 26.4254 22.2633 24.9023C22.2633 23.3789 22.9374 22.0148 23.9996 21.0977Z" fill="#FF5E00"/>
</svg>
