<svg width="40" height="41" viewBox="0 0 40 41" fill="none" xmlns="http://www.w3.org/2000/svg">
<path d="M19.9963 3.83203L20.193 3.8437L20.2913 3.85703L20.393 3.8787L20.578 3.93536C20.7058 3.98247 20.8272 4.04517 20.9397 4.12203L21.113 4.2587L21.538 4.62203C24.9002 7.41464 29.1494 8.9142 33.5197 8.85036L34.0897 8.8337C34.4623 8.8167 34.8299 8.92521 35.1336 9.14186C35.4373 9.35852 35.6595 9.67079 35.7647 10.0287C36.5837 12.8147 36.8343 15.7368 36.5016 18.6216C36.169 21.5063 35.2598 24.2947 33.8282 26.8212C32.3966 29.3476 30.4718 31.5605 28.1681 33.3283C25.8644 35.0962 23.2288 36.3829 20.418 37.112C20.1436 37.1832 19.8557 37.1832 19.5813 37.112C16.7704 36.3831 14.1346 35.0965 11.8307 33.3287C9.52682 31.561 7.6018 29.3481 6.17003 26.8216C4.73827 24.2952 3.82899 21.5067 3.49623 18.6219C3.16348 15.737 3.41402 12.8148 4.23299 10.0287C4.33818 9.67079 4.56039 9.35852 4.86407 9.14186C5.16775 8.92521 5.53534 8.8167 5.90799 8.8337C10.4704 9.04225 14.9464 7.54035 18.4597 4.62203L18.898 4.24703L19.058 4.12203C19.1704 4.04517 19.2919 3.98247 19.4197 3.93536L19.6063 3.8787C19.6716 3.86292 19.7379 3.85123 19.8047 3.8437L19.9963 3.83203ZM26.1797 15.987C26.0249 15.8321 25.8411 15.7091 25.6387 15.6253C25.4364 15.5414 25.2195 15.4982 25.0005 15.4982C24.7815 15.4982 24.5646 15.5414 24.3623 15.6253C24.1599 15.7091 23.9761 15.8321 23.8213 15.987L18.333 21.4737L16.178 19.3204L16.0213 19.182C15.6863 18.923 15.2653 18.8012 14.8438 18.8414C14.4222 18.8815 14.0318 19.0806 13.7517 19.3982C13.4717 19.7158 13.323 20.1281 13.3359 20.5514C13.3489 20.9746 13.5224 21.3771 13.8213 21.677L17.1547 25.0104L17.3113 25.1487C17.632 25.3974 18.0324 25.5206 18.4375 25.4952C18.8425 25.4697 19.2243 25.2973 19.5113 25.0104L26.178 18.3437L26.3163 18.187C26.5651 17.8664 26.6883 17.4659 26.6628 17.0609C26.6373 16.6559 26.465 16.274 26.178 15.987H26.1797Z" fill="#01B664"/>
</svg>
