<svg width="33" height="33" viewBox="0 0 33 33" fill="none" xmlns="http://www.w3.org/2000/svg">
<path d="M13.1108 3.16602C11.6381 3.16602 10.4443 4.36007 10.4443 5.83259C10.444 6.18242 10.5127 6.5289 10.6465 6.85223C10.7803 7.17556 10.9766 7.46943 11.2242 7.71704C11.4718 7.96466 11.7659 8.16118 12.0896 8.29538C12.4133 8.42958 12.7603 8.49882 13.1108 8.49918H15.7778V5.83259C15.7783 5.12604 15.4977 4.44819 14.9975 3.94812C14.4974 3.44806 13.8188 3.16672 13.1108 3.16602ZM13.1108 10.2769H5.99975C4.52699 10.2769 3.33325 11.4709 3.33325 12.9439C3.33325 14.4164 4.52699 15.6105 5.99975 15.6105H13.1113C14.5835 15.6105 15.7778 14.4164 15.7778 12.9439C15.7778 11.4709 14.5835 10.2769 13.1108 10.2769Z" fill="#36C5F0"/>
<path d="M30 12.9439C30 11.4709 28.8058 10.2769 27.333 10.2769C25.8602 10.2769 24.6665 11.4709 24.6665 12.9439V15.6105H27.333C28.041 15.6097 28.7197 15.3284 29.2198 14.8284C29.72 14.3283 30.0005 13.6505 30 12.9439ZM22.8889 12.9439V5.83259C22.8894 5.12604 22.6089 4.44819 22.1088 3.94812C21.6086 3.44806 20.93 3.16672 20.222 3.16602C18.7492 3.16602 17.5554 4.36007 17.5554 5.83259V12.9435C17.5554 14.4168 18.7492 15.6109 20.222 15.6109C20.93 15.6103 21.6086 15.3289 22.1088 14.8288C22.6089 14.3288 22.8894 13.6509 22.8889 12.9444" fill="#2EB67D"/>
<path d="M20.222 29.8332C20.93 29.8325 21.6086 29.5512 22.1088 29.0511C22.6089 28.5511 22.8894 27.8732 22.8889 27.1665C22.8894 26.46 22.6089 25.7821 22.1088 25.2821C21.6086 24.782 20.93 24.5007 20.222 24.5H17.5554V27.1665C17.5554 28.6391 18.7492 29.8332 20.222 29.8332ZM20.222 22.7223H27.3334C28.8058 22.7223 30 21.5283 30 20.0553C30.0005 19.3487 29.72 18.6709 29.2198 18.1708C28.7197 17.6708 28.041 17.3895 27.333 17.3887H20.222C18.7492 17.3887 17.5554 18.5828 17.5554 20.0553C17.5552 20.4051 17.6238 20.7516 17.7576 21.0749C17.8914 21.3983 18.0877 21.6921 18.3353 21.9397C18.5829 22.1873 18.877 22.3839 19.2008 22.518C19.5244 22.6523 19.8714 22.7215 20.222 22.7219" fill="#ECB22E"/>
<path d="M3.33325 20.0553C3.33291 20.4051 3.4016 20.7516 3.53541 21.0749C3.66923 21.3983 3.86553 21.6921 4.11315 21.9397C4.36075 22.1873 4.6548 22.3839 4.97851 22.518C5.3022 22.6523 5.64923 22.7215 5.99975 22.7219C6.70769 22.7212 7.38637 22.4399 7.88651 21.9397C8.38664 21.4397 8.66727 20.7619 8.66668 20.0553V17.3887H5.99975C4.52699 17.3887 3.33325 18.5828 3.33325 20.0553ZM10.4443 20.0553V27.1661C10.4443 28.6391 11.6381 29.8332 13.1108 29.8332C13.8188 29.8325 14.4974 29.5512 14.9975 29.0511C15.4977 28.5511 15.7783 27.8732 15.7778 27.1665V20.0553C15.7781 19.7055 15.7094 19.3589 15.5755 19.0356C15.4417 18.7121 15.2454 18.4183 14.9977 18.1707C14.7501 17.9231 14.4559 17.7265 14.1322 17.5924C13.8084 17.4583 13.4614 17.3889 13.1108 17.3887C11.6381 17.3887 10.4443 18.5828 10.4443 20.0553Z" fill="#E01E5A"/>
</svg>
