<svg width="33" height="33" viewBox="0 0 33 33" fill="none" xmlns="http://www.w3.org/2000/svg">
<g clip-path="url(#clip0_10168_95370)">
<path d="M17.5693 11.166C20.1035 11.166 22.1579 9.07654 22.1579 6.49903C22.1579 3.92152 20.1035 1.83203 17.5693 1.83203C15.0351 1.83203 12.9807 3.92152 12.9807 6.49903C12.9807 9.07654 15.0351 11.166 17.5693 11.166Z" fill="#7B83EB"/>
<path opacity="0.1" d="M17.2419 7.5H13.0859L13.1066 7.593L13.1086 7.601L13.1302 7.687C13.4322 8.85171 14.1648 9.85274 15.1752 10.4811C16.1856 11.1094 17.3956 11.3165 18.5525 11.059V8.833C18.5515 8.47979 18.4131 8.14135 18.1675 7.89159C17.922 7.64183 17.5892 7.50106 17.2419 7.5Z" fill="black"/>
<path opacity="0.2" d="M16.2586 8.5H13.4231C13.7952 9.29802 14.3824 9.97226 15.1163 10.4444C15.8503 10.9165 16.7008 11.167 17.5692 11.167V9.833C17.5682 9.47979 17.4298 9.14135 17.1842 8.89159C16.9387 8.64183 16.6059 8.50106 16.2586 8.5Z" fill="black"/>
<path d="M27.8929 11.5C29.7934 11.5 31.3341 9.933 31.3341 8C31.3341 6.067 29.7934 4.5 27.8929 4.5C25.9923 4.5 24.4517 6.067 24.4517 8C24.4517 9.933 25.9923 11.5 27.8929 11.5Z" fill="#5059C9"/>
<path d="M30.8424 12.5H23.1135C22.9466 12.5 22.7866 12.5674 22.6686 12.6875C22.5506 12.8075 22.4843 12.9703 22.4843 13.14V21.25C22.463 22.4237 22.8388 23.5693 23.5488 24.4948C24.2589 25.4204 25.26 26.0697 26.3846 26.334C27.1009 26.4869 27.8416 26.4753 28.5529 26.3003C29.2642 26.1252 29.9282 25.791 30.4965 25.322C31.0648 24.853 31.5231 24.261 31.8381 23.5891C32.1531 22.9172 32.3168 22.1824 32.3172 21.438V14C32.3172 13.6022 32.1619 13.2206 31.8853 12.9393C31.6087 12.658 31.2336 12.5 30.8424 12.5Z" fill="#5059C9"/>
<path d="M25.4348 14V23.5C25.4358 25.2605 24.8654 26.9722 23.8121 28.3693C22.7588 29.7664 21.2816 30.7708 19.6097 31.2267C17.9377 31.6826 16.1646 31.5645 14.5655 30.8906C12.9663 30.2168 11.6305 29.0249 10.7655 27.5C10.5763 27.1802 10.4119 26.8458 10.2739 26.5C10.1452 26.1739 10.0368 25.8399 9.94941 25.5C9.78732 24.8461 9.70477 24.1744 9.70361 23.5V14C9.70336 13.8029 9.74133 13.6078 9.81535 13.4257C9.88937 13.2436 9.998 13.0781 10.135 12.9388C10.272 12.7994 10.4347 12.6889 10.6137 12.6136C10.7928 12.5384 10.9847 12.4997 11.1784 12.5H23.96C24.1538 12.4997 24.3457 12.5384 24.5247 12.6136C24.7038 12.6889 24.8664 12.7994 25.0034 12.9388C25.1404 13.0781 25.2491 13.2436 25.3231 13.4257C25.3971 13.6078 25.4351 13.8029 25.4348 14Z" fill="#7B83EB"/>
<path opacity="0.2" d="M16.2586 8.5H13.4231C13.7952 9.29802 14.3824 9.97226 15.1163 10.4444C15.8503 10.9165 16.7008 11.167 17.5692 11.167V9.833C17.5682 9.47979 17.4298 9.14135 17.1842 8.89159C16.9387 8.64183 16.6059 8.50106 16.2586 8.5Z" fill="black"/>
<path opacity="0.1" d="M18.5524 12.5V25.17C18.5524 25.4715 18.451 25.7638 18.265 25.9985C18.0789 26.2332 17.8195 26.3961 17.5299 26.46C17.4374 26.488 17.3412 26.5015 17.2448 26.5H10.2739C10.1452 26.1739 10.0368 25.8399 9.94941 25.5C9.78732 24.8461 9.70477 24.1744 9.70361 23.5V14C9.70336 13.8029 9.74133 13.6078 9.81535 13.4257C9.88937 13.2436 9.998 13.0781 10.135 12.9388C10.272 12.7994 10.4347 12.6889 10.6137 12.6136C10.7928 12.5384 10.9847 12.4997 11.1784 12.5H18.5524Z" fill="black"/>
<path opacity="0.2" d="M17.5692 12.5V26.17C17.5707 26.2681 17.5574 26.3659 17.5299 26.46C17.467 26.7546 17.3069 27.0184 17.0762 27.2076C16.8454 27.3968 16.558 27.5 16.2616 27.5H10.7655C10.5763 27.1802 10.4119 26.8458 10.2739 26.5C10.1452 26.1739 10.0368 25.8399 9.94941 25.5C9.78732 24.8461 9.70477 24.1744 9.70361 23.5V14C9.70336 13.8029 9.74133 13.6078 9.81535 13.4257C9.88937 13.2436 9.998 13.0781 10.135 12.9388C10.272 12.7994 10.4347 12.6889 10.6137 12.6136C10.7928 12.5384 10.9847 12.4997 11.1784 12.5H17.5692Z" fill="black"/>
<path opacity="0.2" d="M17.5692 12.5V24.17C17.5677 24.5223 17.4294 24.8596 17.1845 25.1087C16.9396 25.3578 16.6079 25.4984 16.2616 25.5H9.94941C9.78732 24.8461 9.70477 24.1744 9.70361 23.5V14C9.70336 13.8029 9.74133 13.6078 9.81535 13.4257C9.88937 13.2436 9.998 13.0781 10.135 12.9388C10.272 12.7994 10.4347 12.6889 10.6137 12.6136C10.7928 12.5384 10.9847 12.4997 11.1784 12.5H17.5692Z" fill="black"/>
<path opacity="0.2" d="M11.1784 12.5C10.9847 12.4997 10.7928 12.5384 10.6137 12.6136C10.4347 12.6889 10.272 12.7994 10.135 12.9388C9.998 13.0781 9.88937 13.2436 9.81535 13.4257C9.74133 13.6078 9.70336 13.8029 9.70361 14V23.5C9.70477 24.1744 9.78732 24.8461 9.94941 25.5H15.2784C15.6247 25.4984 15.9564 25.3578 16.2013 25.1087C16.4462 24.8596 16.5845 24.5223 16.586 24.17V12.5H11.1784Z" fill="black"/>
<path d="M2.16546 8.5H15.2755C15.6231 8.5 15.9564 8.64044 16.2022 8.89043C16.448 9.14041 16.5861 9.47947 16.5861 9.833V23.167C16.5861 23.5205 16.448 23.8596 16.2022 24.1096C15.9564 24.3596 15.6231 24.5 15.2755 24.5H2.16546C1.81787 24.5 1.48451 24.3596 1.23873 24.1096C0.99294 23.8596 0.854858 23.5205 0.854858 23.167L0.854858 9.833C0.854858 9.47947 0.99294 9.14041 1.23873 8.89043C1.48451 8.64044 1.81787 8.5 2.16546 8.5Z" fill="#4B53BC"/>
<path d="M12.6336 13.4759H9.69388V21.4959H7.76484V13.4759H4.80737V11.5059H12.6336V13.4759Z" fill="white"/>
</g>
<defs>
<clipPath id="clip0_10168_95370">
<rect width="32" height="32" fill="white" transform="translate(0.666626 0.5)"/>
</clipPath>
</defs>
</svg>
