<svg width="432" height="424" viewBox="0 0 432 424" fill="none" xmlns="http://www.w3.org/2000/svg">
<path d="M323.913 317.356C383.511 258.949 383.511 164.254 323.913 105.847C264.314 47.4406 167.686 47.4406 108.087 105.847C48.4889 164.254 48.4889 258.949 108.087 317.356C167.686 375.763 264.314 375.762 323.913 317.356Z" fill="white"/>
<path d="M395.709 168.457C386.455 131.456 365.586 98.8735 337.114 74.6577C336.298 73.9629 335.034 74.156 334.462 75.0546C334.454 75.0674 334.446 75.0791 334.438 75.0919C333.979 75.8112 334.127 76.7451 334.781 77.3018C362.703 101.05 383.169 133.001 392.244 169.287C392.475 170.213 393.419 170.782 394.363 170.558L394.408 170.547C395.354 170.321 395.941 169.385 395.709 168.457Z" fill="#01060B"/>
<path d="M396.555 194.012C396.969 198.113 397.241 202.255 397.365 206.433C397.394 207.407 398.233 208.166 399.226 208.102L399.262 208.101C400.222 208.039 400.963 207.251 400.934 206.308C400.821 202.49 400.504 197.695 400.132 193.671C400.041 192.683 399.129 191.981 398.126 192.109C398.111 192.111 398.096 192.113 398.08 192.115C397.13 192.234 396.461 193.078 396.555 194.012Z" fill="#01060B"/>
<path d="M369.54 312.605C384.923 290.215 395.359 264.303 399.271 236.376C399.434 235.209 398.366 234.221 397.189 234.452C397.174 234.455 397.158 234.458 397.143 234.461C396.401 234.605 395.837 235.187 395.734 235.922C391.895 263.295 381.66 288.691 366.583 310.639C366.152 311.266 366.183 312.091 366.665 312.682L366.688 312.711C367.432 313.623 368.875 313.574 369.54 312.605Z" fill="#01060B"/>
<path d="M351.112 330.128C339.262 343.089 325.505 354.338 310.277 363.454C309.249 364.069 309.132 365.484 310.058 366.24L310.087 366.264C310.677 366.746 311.518 366.809 312.173 366.417C327.683 357.127 341.696 345.665 353.768 332.461C354.42 331.748 354.349 330.645 353.616 330.01C353.605 330.001 353.594 329.991 353.582 329.981C352.857 329.353 351.758 329.421 351.112 330.128Z" fill="#01060B"/>
<path d="M64.4182 312.81C65.4082 312.366 65.7482 311.163 65.1422 310.276C45.8372 282.024 34.5612 248.08 34.5612 211.6C34.5612 179.78 43.1422 149.892 58.1442 124.025C58.7122 123.046 58.2052 121.804 57.0982 121.501C57.0862 121.498 57.0742 121.494 57.0622 121.492C56.2752 121.276 55.4362 121.602 55.0322 122.298C39.7362 148.674 30.9912 179.155 30.9912 211.6C30.9912 248.799 42.4872 283.415 62.1732 312.224C62.6542 312.928 63.5892 313.182 64.3752 312.83L64.4182 312.81Z" fill="#01060B"/>
<path d="M289.873 375.886C289.486 375.014 288.473 374.603 287.582 374.98C265.611 384.263 241.411 389.413 216.003 389.413C194.966 389.413 174.763 385.866 155.961 379.381C155.142 379.099 154.224 379.426 153.82 380.18C153.814 380.19 153.809 380.2 153.803 380.211C153.299 381.156 153.743 382.329 154.769 382.682C173.945 389.295 194.548 392.912 216.002 392.912C241.914 392.912 266.594 387.659 288.999 378.189C289.891 377.813 290.274 376.791 289.886 375.918C289.883 375.908 289.878 375.897 289.873 375.886Z" fill="#01060B"/>
<path d="M237.619 181.304H145.056C132.6 181.304 122.503 171.813 122.503 160.105C122.503 148.397 132.6 138.906 145.056 138.906H237.619C250.075 138.906 260.172 148.397 260.172 160.105C260.172 171.813 250.075 181.304 237.619 181.304Z" fill="#3550DC"/>
<path d="M148.23 179.551L156.48 191.182C157.455 192.556 159.612 192.529 160.549 191.131L168.309 179.551H148.23Z" fill="#3550DC"/>
<path d="M158.305 155.221H154.453C154.344 154.589 154.141 154.029 153.846 153.542C153.551 153.048 153.183 152.629 152.744 152.286C152.305 151.942 151.803 151.685 151.24 151.513C150.684 151.335 150.084 151.245 149.438 151.245C148.292 151.245 147.276 151.534 146.39 152.11C145.504 152.68 144.811 153.518 144.31 154.623C143.808 155.722 143.558 157.064 143.558 158.65C143.558 160.263 143.808 161.623 144.31 162.728C144.818 163.826 145.511 164.657 146.39 165.22C147.276 165.776 148.288 166.054 149.428 166.054C150.06 166.054 150.65 165.972 151.199 165.807C151.755 165.636 152.253 165.385 152.692 165.055C153.139 164.726 153.513 164.321 153.815 163.84C154.124 163.36 154.337 162.81 154.453 162.192L158.305 162.213C158.161 163.215 157.848 164.156 157.368 165.035C156.894 165.914 156.273 166.689 155.504 167.362C154.735 168.028 153.836 168.55 152.806 168.928C151.776 169.298 150.633 169.484 149.376 169.484C147.523 169.484 145.868 169.055 144.413 168.196C142.957 167.338 141.811 166.099 140.973 164.479C140.135 162.858 139.717 160.915 139.717 158.65C139.717 156.377 140.139 154.434 140.983 152.821C141.828 151.201 142.978 149.962 144.433 149.103C145.889 148.245 147.536 147.816 149.376 147.816C150.55 147.816 151.642 147.981 152.651 148.31C153.661 148.64 154.56 149.124 155.349 149.762C156.139 150.394 156.788 151.17 157.296 152.09C157.811 153.003 158.147 154.047 158.305 155.221ZM168.539 169.504C166.994 169.504 165.655 169.164 164.523 168.485C163.39 167.805 162.511 166.854 161.886 165.632C161.268 164.41 160.959 162.982 160.959 161.348C160.959 159.714 161.268 158.283 161.886 157.054C162.511 155.825 163.39 154.87 164.523 154.191C165.655 153.511 166.994 153.171 168.539 153.171C170.084 153.171 171.422 153.511 172.555 154.191C173.688 154.87 174.563 155.825 175.181 157.054C175.806 158.283 176.119 159.714 176.119 161.348C176.119 162.982 175.806 164.41 175.181 165.632C174.563 166.854 173.688 167.805 172.555 168.485C171.422 169.164 170.084 169.504 168.539 169.504ZM168.56 166.518C169.397 166.518 170.097 166.288 170.66 165.828C171.223 165.361 171.642 164.736 171.917 163.953C172.198 163.171 172.339 162.299 172.339 161.338C172.339 160.37 172.198 159.494 171.917 158.712C171.642 157.922 171.223 157.294 170.66 156.827C170.097 156.36 169.397 156.127 168.56 156.127C167.701 156.127 166.987 156.36 166.418 156.827C165.855 157.294 165.432 157.922 165.151 158.712C164.876 159.494 164.739 160.37 164.739 161.338C164.739 162.299 164.876 163.171 165.151 163.953C165.432 164.736 165.855 165.361 166.418 165.828C166.987 166.288 167.701 166.518 168.56 166.518ZM179.283 169.195V153.377H182.846V156.065H183.031C183.361 155.159 183.907 154.452 184.669 153.944C185.431 153.429 186.34 153.171 187.398 153.171C188.469 153.171 189.372 153.432 190.106 153.954C190.848 154.469 191.369 155.172 191.672 156.065H191.836C192.186 155.186 192.777 154.486 193.608 153.964C194.445 153.435 195.437 153.171 196.584 153.171C198.039 153.171 199.227 153.631 200.147 154.551C201.067 155.471 201.527 156.813 201.527 158.578V169.195H197.789V159.154C197.789 158.173 197.528 157.455 197.006 157.002C196.484 156.542 195.846 156.312 195.091 156.312C194.191 156.312 193.487 156.594 192.979 157.157C192.478 157.713 192.228 158.437 192.228 159.33V169.195H188.572V159C188.572 158.183 188.325 157.531 187.83 157.043C187.343 156.556 186.704 156.312 185.915 156.312C185.379 156.312 184.892 156.449 184.452 156.724C184.013 156.992 183.663 157.373 183.402 157.867C183.141 158.355 183.011 158.924 183.011 159.577V169.195H179.283ZM205.309 169.195V153.377H209.037V169.195H205.309ZM207.183 151.132C206.593 151.132 206.085 150.936 205.659 150.545C205.234 150.147 205.021 149.67 205.021 149.114C205.021 148.551 205.234 148.074 205.659 147.682C206.085 147.284 206.593 147.085 207.183 147.085C207.781 147.085 208.289 147.284 208.707 147.682C209.133 148.074 209.346 148.551 209.346 149.114C209.346 149.67 209.133 150.147 208.707 150.545C208.289 150.936 207.781 151.132 207.183 151.132ZM216.599 159.927V169.195H212.871V153.377H216.434V156.065H216.619C216.983 155.179 217.563 154.476 218.36 153.954C219.163 153.432 220.155 153.171 221.336 153.171C222.427 153.171 223.378 153.405 224.188 153.871C225.005 154.338 225.637 155.015 226.083 155.9C226.536 156.786 226.76 157.86 226.753 159.124V169.195H223.025V159.7C223.025 158.643 222.75 157.816 222.201 157.218C221.658 156.621 220.907 156.322 219.945 156.322C219.293 156.322 218.713 156.467 218.205 156.755C217.704 157.036 217.309 157.445 217.021 157.98C216.739 158.516 216.599 159.165 216.599 159.927ZM237.422 175.457C236.083 175.457 234.933 175.275 233.972 174.911C233.011 174.554 232.238 174.073 231.655 173.469C231.071 172.865 230.666 172.196 230.439 171.461L233.797 170.647C233.948 170.956 234.167 171.262 234.456 171.564C234.744 171.873 235.132 172.127 235.619 172.326C236.114 172.532 236.735 172.635 237.483 172.635C238.541 172.635 239.416 172.377 240.11 171.863C240.803 171.355 241.15 170.517 241.15 169.35V166.353H240.964C240.772 166.737 240.491 167.132 240.12 167.537C239.756 167.942 239.272 168.282 238.668 168.557C238.07 168.831 237.319 168.969 236.412 168.969C235.197 168.969 234.095 168.684 233.107 168.114C232.125 167.537 231.342 166.679 230.759 165.539C230.182 164.393 229.894 162.958 229.894 161.235C229.894 159.498 230.182 158.032 230.759 156.837C231.342 155.636 232.128 154.726 233.117 154.108C234.106 153.484 235.208 153.171 236.423 153.171C237.35 153.171 238.112 153.329 238.709 153.645C239.313 153.954 239.794 154.328 240.151 154.767C240.508 155.2 240.779 155.608 240.964 155.993H241.17V153.377H244.847V169.453C244.847 170.805 244.524 171.924 243.879 172.81C243.233 173.696 242.351 174.358 241.232 174.798C240.113 175.237 238.843 175.457 237.422 175.457ZM237.453 166.044C238.242 166.044 238.915 165.852 239.471 165.467C240.027 165.083 240.449 164.53 240.738 163.809C241.026 163.088 241.17 162.223 241.17 161.214C241.17 160.219 241.026 159.347 240.738 158.598C240.456 157.85 240.037 157.27 239.481 156.858C238.932 156.439 238.256 156.23 237.453 156.23C236.622 156.23 235.928 156.446 235.372 156.879C234.816 157.311 234.397 157.905 234.116 158.66C233.834 159.408 233.694 160.26 233.694 161.214C233.694 162.182 233.834 163.03 234.116 163.758C234.404 164.479 234.827 165.042 235.383 165.447C235.946 165.845 236.636 166.044 237.453 166.044Z" fill="white"/>
<path d="M116.227 244.749C116.701 246.711 117.529 248.222 118.709 249.28C119.96 250.339 121.318 251.084 122.784 251.515C124.25 251.876 125.648 252.062 126.977 252.072C129.705 252.093 131.843 251.584 133.39 250.547C135.008 249.44 135.824 248.047 135.837 246.368C135.848 244.969 135.332 243.881 134.289 243.103C133.246 242.326 131.887 241.721 130.211 241.288C128.606 240.786 126.931 240.284 125.186 239.781C123.301 239.276 121.277 238.701 119.114 238.055C117.02 237.41 115.033 236.52 113.153 235.386C111.274 234.253 109.746 232.807 108.571 231.049C107.395 229.291 106.818 227.118 106.839 224.53C106.865 221.242 107.797 218.416 109.635 216.051C111.473 213.617 113.971 211.747 117.13 210.442C120.288 209.137 123.826 208.499 127.743 208.529C132.43 208.565 136.48 209.575 139.892 211.56C143.304 213.545 145.764 216.432 147.273 220.222L136.859 223.5C136.377 222.517 135.649 221.672 134.675 220.965C133.771 220.258 132.656 219.76 131.329 219.47C130.073 219.111 128.78 218.926 127.451 218.916C125.212 218.899 123.32 219.339 121.774 220.236C120.228 221.134 119.448 222.422 119.434 224.101C119.428 224.941 119.667 225.677 120.151 226.31C120.706 226.944 121.436 227.474 122.342 227.901C123.249 228.258 124.331 228.616 125.587 228.975C126.844 229.265 128.17 229.625 129.566 230.055C131.799 230.702 133.997 231.418 136.16 232.204C138.393 232.921 140.414 233.846 142.224 234.979C144.104 236.113 145.561 237.593 146.596 239.42C147.701 241.247 148.312 243.56 148.429 246.359C148.406 249.367 147.509 252.124 145.74 254.629C143.972 257.064 141.438 259.003 138.139 260.447C134.91 261.821 131.057 262.492 126.58 262.457C121.403 262.418 116.97 261.265 113.28 258.998C109.591 256.731 107.101 253.109 105.811 248.132L116.227 244.749ZM182.859 262.888C177.822 262.849 173.319 261.73 169.349 259.531C165.379 257.262 162.291 254.126 160.084 250.121C157.878 246.047 156.797 241.281 156.84 235.825C156.884 230.299 158.076 225.516 160.417 221.476C162.758 217.437 165.966 214.348 170.04 212.211C174.115 210.003 178.636 208.918 183.603 208.956C188.639 208.995 193.142 210.149 197.112 212.417C201.152 214.617 204.345 217.755 206.691 221.83C209.038 225.835 210.189 230.566 210.146 236.023C210.102 241.549 208.84 246.331 206.359 250.37C203.948 254.409 200.671 257.532 196.525 259.739C192.451 261.877 187.895 262.926 182.859 262.888ZM182.838 252.289C185.287 252.308 187.6 251.731 189.778 250.558C192.026 249.386 193.859 247.616 195.277 245.248C196.695 242.811 197.419 239.703 197.45 235.926C197.478 232.288 196.838 229.275 195.528 226.887C194.218 224.428 192.484 222.596 190.325 221.39C188.166 220.184 185.827 219.572 183.309 219.553C180.86 219.534 178.582 220.111 176.474 221.284C174.436 222.458 172.777 224.264 171.499 226.703C170.221 229.072 169.567 232.145 169.537 235.922C169.508 239.56 170.078 242.607 171.248 245.065C172.488 247.453 174.118 249.249 176.137 250.454C178.156 251.658 180.39 252.27 182.838 252.289ZM244.443 263.358C239.407 263.32 234.903 262.201 230.933 260.002C226.964 257.733 223.876 254.596 221.669 250.592C219.463 246.518 218.381 241.752 218.425 236.296C218.469 230.77 219.661 225.987 222.002 221.947C224.343 217.907 227.55 214.819 231.625 212.681C235.7 210.474 240.221 209.389 245.187 209.427C250.224 209.466 254.727 210.619 258.697 212.888C262.737 215.088 265.93 218.225 268.276 222.301C270.622 226.306 271.774 231.037 271.731 236.493C271.687 242.02 270.424 246.802 267.944 250.841C265.533 254.88 262.255 258.003 258.11 260.21C254.036 262.347 249.48 263.397 244.443 263.358ZM244.423 252.76C246.871 252.778 249.184 252.201 251.362 251.029C253.61 249.857 255.443 248.087 256.861 245.719C258.28 243.281 259.004 240.174 259.034 236.396C259.063 232.759 258.422 229.746 257.112 227.357C255.803 224.899 254.068 223.067 251.909 221.861C249.75 220.655 247.411 220.043 244.893 220.023C242.445 220.005 240.167 220.582 238.059 221.755C236.02 222.929 234.362 224.735 233.083 227.174C231.805 229.542 231.151 232.615 231.121 236.393C231.092 240.03 231.663 243.078 232.832 245.535C234.073 247.923 235.702 249.72 237.721 250.924C239.741 252.129 241.974 252.741 244.423 252.76ZM283.052 210.451L293.755 210.533L294.553 215.681C296.317 213.875 298.392 212.457 300.779 211.426C303.235 210.395 305.863 209.891 308.661 209.912C312.788 209.944 316.314 210.845 319.238 212.616C322.232 214.318 324.521 216.854 326.103 220.224C327.686 223.524 328.457 227.658 328.418 232.624L328.174 263.264L316.317 263.173L316.548 234.108C316.583 229.701 315.7 226.371 313.899 224.119C312.168 221.867 309.519 220.727 305.951 220.7C302.314 220.672 299.542 221.805 297.634 224.099C295.728 226.323 294.757 229.639 294.722 234.046L294.492 263.006L282.635 262.916L283.052 210.451Z" fill="#01060B"/>
<path d="M378.863 211.593C378.863 251.498 363.834 288.023 339.041 316.035C338.294 316.879 338.546 318.181 339.562 318.686C339.576 318.693 339.59 318.7 339.604 318.707C340.32 319.063 341.194 318.898 341.72 318.304C367.051 289.682 382.406 252.365 382.406 211.592C382.406 154.917 352.748 104.905 307.847 75.6698C306.925 75.0691 305.669 75.465 305.263 76.4744L305.25 76.5077C304.943 77.2702 305.225 78.1345 305.922 78.5883C349.849 107.205 378.863 156.138 378.863 211.593Z" fill="#3550DC"/>
<path d="M209.551 371.07C122.311 367.722 52.4738 296.806 53.1468 210.355C53.8158 124.437 124.538 54.0195 212.189 52.035C227.899 51.6793 243.12 53.5286 257.565 57.2682C258.322 57.4642 259.183 57.0507 259.482 56.3412L259.487 56.3284C259.538 56.2089 259.589 56.0893 259.641 55.9697C260 55.1426 259.536 54.1891 258.65 53.9578C243.946 50.1329 228.453 48.2268 212.463 48.556C121.643 50.4239 48.7388 124.16 49.6078 213.179C50.4578 300.215 121.238 371.156 209.417 374.537C210.357 374.574 211.152 373.867 211.231 372.949C211.232 372.937 211.233 372.925 211.234 372.914C211.319 371.94 210.546 371.107 209.551 371.07Z" fill="#3550DC"/>
<path d="M354.215 48.1967C349.562 48.1967 345.776 44.4864 345.776 39.9265C345.776 35.3665 349.562 31.6562 354.215 31.6562C358.868 31.6562 362.654 35.3665 362.654 39.9265C362.654 44.4864 358.868 48.1967 354.215 48.1967ZM354.215 34.5962C351.216 34.5962 348.776 36.9875 348.776 39.9265C348.776 42.8665 351.216 45.2567 354.215 45.2567C357.214 45.2567 359.654 42.8655 359.654 39.9265C359.654 36.9865 357.214 34.5962 354.215 34.5962Z" fill="#01060B"/>
<path d="M48.6011 365.357C43.9481 365.357 40.1621 361.647 40.1621 357.087C40.1621 352.527 43.9481 348.816 48.6011 348.816C53.2541 348.816 57.0401 352.526 57.0401 357.087C57.0401 361.647 53.2541 365.357 48.6011 365.357ZM48.6011 351.756C45.6021 351.756 43.1621 354.147 43.1621 357.087C43.1621 360.026 45.6021 362.417 48.6011 362.417C51.6011 362.417 54.0401 360.026 54.0401 357.087C54.0401 354.147 51.6001 351.756 48.6011 351.756Z" fill="#01060B"/>
<path d="M419.73 141.552C423.006 141.552 425.662 138.95 425.662 135.739C425.662 132.529 423.006 129.926 419.73 129.926C416.454 129.926 413.798 132.529 413.798 135.739C413.798 138.95 416.454 141.552 419.73 141.552Z" fill="#01060B"/>
<path d="M21.059 91.7478C24.3351 91.7478 26.991 89.1451 26.991 85.9345C26.991 82.7238 24.3351 80.1211 21.059 80.1211C17.7828 80.1211 15.127 82.7238 15.127 85.9345C15.127 89.1451 17.7828 91.7478 21.059 91.7478Z" fill="#01060B"/>
<path d="M405.936 347.138C405.108 347.138 404.436 346.479 404.436 345.668V333.599C404.436 332.787 405.108 332.129 405.936 332.129C406.764 332.129 407.436 332.787 407.436 333.599V345.668C407.436 346.479 406.764 347.138 405.936 347.138Z" fill="#01060B"/>
<path d="M412.093 341.104H399.778C398.95 341.104 398.278 340.446 398.278 339.634C398.278 338.823 398.95 338.164 399.778 338.164H412.093C412.921 338.164 413.593 338.823 413.593 339.634C413.593 340.446 412.921 341.104 412.093 341.104Z" fill="#01060B"/>
<path d="M177.923 19.5321C177.094 19.5321 176.423 18.8746 176.423 18.0621V5.99344C176.423 5.18102 177.094 4.52344 177.923 4.52344C178.752 4.52344 179.423 5.18102 179.423 5.99344V18.0621C179.423 18.8746 178.752 19.5321 177.923 19.5321Z" fill="#01060B"/>
<path d="M184.081 13.4986H171.766C170.937 13.4986 170.266 12.841 170.266 12.0286C170.266 11.2162 170.937 10.5586 171.766 10.5586H184.081C184.91 10.5586 185.581 11.2162 185.581 12.0286C185.581 12.84 184.91 13.4986 184.081 13.4986Z" fill="#01060B"/>
<path d="M143.738 310.234C143.41 310.234 143.083 310.11 142.833 309.863L134.915 302.013C134.554 301.656 134.448 301.121 134.646 300.656C134.844 300.192 135.307 299.891 135.82 299.891H297.895C298.597 299.891 299.167 300.448 299.167 301.137C299.167 301.826 298.598 302.384 297.895 302.384H138.865L144.642 308.111C145.135 308.601 145.131 309.39 144.632 309.874C144.384 310.113 144.061 310.234 143.738 310.234Z" fill="#3550DC"/>
</svg>
