<svg width="170" height="25" viewBox="0 0 170 25" fill="none" xmlns="http://www.w3.org/2000/svg">
<path d="M0.5 4.19231C0.5 2.1531 2.1531 0.5 4.19231 0.5H17.1154C21.1938 0.5 24.5 3.80621 24.5 7.88462V20.8077C24.5 22.8469 22.8469 24.5 20.8077 24.5H4.19231C2.1531 24.5 0.5 22.8469 0.5 20.8077V4.19231Z" fill="#3550DC"/>
<path d="M19.0549 14.4437C19.1895 14.4746 19.3236 14.3905 19.3545 14.256C19.3853 14.1214 19.3013 13.9873 19.1667 13.9564L19.1108 14.2001L19.0549 14.4437ZM15.7345 11.3726C15.8529 11.3015 15.8913 11.148 15.8203 11.0296C15.7492 10.9112 15.5957 10.8728 15.4773 10.9438L15.6059 11.1582L15.7345 11.3726ZM13.3053 12.8681L13.2494 13.1117L19.0549 14.4437L19.1108 14.2001L19.1667 13.9564L13.3612 12.6244L13.3053 12.8681ZM13.7597 12.2659L13.8884 12.4803L15.7345 11.3726L15.6059 11.1582L15.4773 10.9438L13.6311 12.0515L13.7597 12.2659Z" fill="#A1B0FC"/>
<path d="M12.2666 12.9922L12.9023 13.623H12.9033L12.7978 13.7295L13.4336 14.3604L13.539 14.2529L14.1748 14.8838L14.0693 14.9912L14.3877 15.3066C14.502 15.4201 14.6126 15.5302 14.7197 15.6367L14.8242 15.5312C15.0634 15.7692 15.2848 15.9894 15.4873 16.1924H15.4883L15.3828 16.2979C15.6304 16.546 15.8502 16.7683 16.042 16.9629L16.1474 16.8574C16.4239 17.1379 16.6411 17.3633 16.7998 17.5303L16.6933 17.6328C16.7876 17.732 16.8598 17.8098 16.9101 17.8662C16.9354 17.8945 16.9547 17.9165 16.9677 17.9326C16.9722 17.9381 16.9752 17.9423 16.9775 17.9453C16.9828 17.9582 16.989 17.9733 16.9941 17.9893L17.1328 17.9443C17.1471 17.9891 17.1608 18.0363 17.166 18.0781H17.167L17.0185 18.0967C17.0197 18.1061 17.0203 18.114 17.0205 18.1201C17.0205 18.1219 17.0205 18.1237 17.0205 18.125C17.0188 18.1363 17.0092 18.167 16.9726 18.2178C16.9377 18.2663 16.8858 18.324 16.8174 18.3887L16.9189 18.4951C16.7504 18.6545 16.5087 18.8364 16.2246 19.0186L16.1445 18.8936C15.9184 19.0385 15.6652 19.1846 15.4023 19.3203L15.4687 19.4492C15.2084 19.5836 14.9405 19.7105 14.6787 19.8145L14.624 19.6768L14.2246 19.8203C14.0727 19.8683 13.9191 19.9114 13.7646 19.9492L13.7998 20.0928C13.4836 20.1702 13.1631 20.2278 12.8398 20.2637L12.8242 20.1152C12.5078 20.1504 12.189 20.1652 11.8701 20.1602L11.8681 20.3076C11.5434 20.3025 11.219 20.2771 10.8965 20.2314L10.917 20.0859C10.6022 20.0413 10.2896 19.9772 9.98141 19.8936L9.94235 20.0371C9.6294 19.9522 9.3214 19.8467 9.0195 19.7227L9.07614 19.5859C8.92905 19.5255 8.78321 19.4604 8.63962 19.3906H8.64059C8.43804 19.2908 8.26559 19.2016 8.10934 19.1113L8.03415 19.2402C7.68409 19.038 7.40685 18.8306 7.05856 18.5117L7.16013 18.4023C7.02839 18.2817 6.88548 18.144 6.7236 17.9834L6.2988 17.5469L6.18845 17.6484C5.86733 17.3025 5.65855 17.0258 5.45016 16.6699L5.57907 16.5947C5.48756 16.4385 5.39586 16.2654 5.29294 16.0615C5.21987 15.9149 5.15165 15.7664 5.08884 15.6162L4.95114 15.6729C4.8219 15.3637 4.71274 15.0481 4.62595 14.7275L4.77145 14.6885C4.68572 14.3718 4.62087 14.0502 4.57712 13.7266L4.42868 13.7471H4.4277C4.3829 13.4157 4.36024 13.0819 4.35837 12.748H4.50876C4.50689 12.4209 4.52549 12.0937 4.5654 11.7686L4.41696 11.75L4.41599 11.749C4.45656 11.4189 4.51896 11.0911 4.60153 10.7676L4.74704 10.8047C4.82774 10.4886 4.92846 10.1763 5.04977 9.87109L4.9111 9.81543C5.03375 9.50693 5.17571 9.20441 5.33884 8.91113L5.47067 8.98438C5.54988 8.84197 5.63373 8.70143 5.72263 8.56348L5.7236 8.5625C5.78382 8.46769 5.85477 8.36688 5.93356 8.2627L5.81442 8.17285C5.95619 7.98542 6.12144 7.78817 6.30075 7.59375L6.4111 7.69531C6.578 7.51435 6.75691 7.33519 6.93747 7.16699L6.83493 7.05762C7.02838 6.8774 7.22422 6.7097 7.4111 6.56543L7.50192 6.68457C7.60535 6.60471 7.70533 6.53199 7.79977 6.46973C7.9308 6.38395 8.06406 6.30351 8.19821 6.22656L8.12399 6.09668C8.40182 5.93734 8.6857 5.79621 8.97458 5.67383L9.03317 5.81152C9.3218 5.68926 9.61539 5.58571 9.91208 5.50098L9.87106 5.35645C10.1777 5.26887 10.4879 5.20078 10.7998 5.15234L10.8222 5.30078C11.1304 5.25293 11.4409 5.22484 11.7509 5.21582L11.7461 5.06641C12.0629 5.05718 12.3798 5.06822 12.6953 5.09863L12.6816 5.24707C12.9904 5.27689 13.2984 5.32608 13.6025 5.39453L13.6338 5.24805C13.942 5.31737 14.2467 5.40655 14.5468 5.51465L14.497 5.65527C14.7873 5.75987 15.073 5.88288 15.3525 6.02441L15.4199 5.8916C15.7001 6.03351 15.9738 6.1939 16.2402 6.37207L16.1572 6.49512C16.2858 6.58114 16.4132 6.67195 16.5381 6.7666C16.6068 6.81884 16.6664 6.86706 16.7177 6.91113L16.8144 6.79688C16.9828 6.94148 17.0736 7.05678 17.1064 7.16797L16.9648 7.20996C16.9763 7.2491 16.9741 7.28928 16.955 7.34473C16.9534 7.34709 16.9523 7.35128 16.9492 7.35547C16.9381 7.37052 16.9203 7.39174 16.8965 7.41992C16.8488 7.47617 16.7782 7.55434 16.6826 7.65723L16.79 7.75781C16.6369 7.92254 16.4237 8.14649 16.1425 8.43555L16.0371 8.33203C15.8493 8.52506 15.6309 8.74795 15.3808 9.00195L15.4873 9.10742C15.288 9.30982 15.0681 9.53202 14.8271 9.77539L14.7207 9.66992L14.3906 10.0029L14.0722 10.3242L14.1787 10.4297L13.541 11.0713L13.4355 10.9658L12.7988 11.6084L12.9043 11.7129L12.2675 12.3555L12.1611 12.25L11.8427 12.5713L11.7373 12.6777L11.8437 12.7832L12.1621 13.0986L12.2666 12.9922Z" stroke="#8E9AFF" stroke-width="0.3" stroke-dasharray="1 1"/>
<path d="M12.8846 13.851L12.7423 13.6467C12.6763 13.6923 12.6007 13.7347 12.5162 13.7731C12.3822 13.8316 12.2377 13.8325 12.0928 13.7854L12.0154 14.0239C11.6291 13.8985 11.3015 13.5313 11.2249 13.1421L11.4682 13.094C11.4468 12.9848 11.4532 12.8798 11.4921 12.7832L11.5423 12.6892C11.5777 12.6368 11.6141 12.5869 11.6509 12.5406L11.458 12.3866C11.5541 12.2658 11.6517 12.164 11.7412 12.0938L11.8942 12.2896C11.9192 12.2698 11.9402 12.2558 11.9568 12.2463L11.9824 12.2334L12.171 12.1921C12.2281 12.1829 12.2802 12.1779 12.3282 12.1774L12.3263 11.9271C12.61 11.924 12.8332 12.0331 13.0495 12.275L12.8642 12.4398C12.9327 12.5163 13.0042 12.6127 13.0795 12.7326C13.0801 12.7341 13.0811 12.7365 13.0823 12.7401C13.0854 12.7494 13.0887 12.7631 13.0924 12.7806L13.3365 12.7284C13.351 12.7959 13.3609 12.8781 13.3625 12.962L13.362 12.9802L13.1125 12.9815C13.1127 13.017 13.112 13.0522 13.1091 13.0848C13.1024 13.1587 13.0826 13.2293 13.0521 13.2962L13.2797 13.399C13.2012 13.5718 13.0671 13.7246 12.8846 13.851Z" fill="#3550DC" stroke="#636EC2" stroke-width="0.5" stroke-dasharray="1 1"/>
<path d="M18.277 17.7796C18.2847 17.7161 18.2564 17.5933 18.2204 17.5102C18.1685 17.4113 17.2727 16.4909 15.6009 14.8321L13.0573 12.3084L15.6047 9.74094C17.4096 7.92182 18.1639 7.13774 18.2031 7.03449C18.2894 6.79625 18.1777 6.61429 17.7362 6.27899C15.1035 4.28298 11.5979 4.16192 8.82551 5.97691C8.11759 6.4436 7.15389 7.40693 6.70464 8.11447C5.22673 10.4081 5.0598 13.339 6.26675 15.7609C6.69034 16.5998 6.94547 16.9477 7.72566 17.7218C8.50585 18.4959 8.85975 18.7523 9.68211 19.1575C11.4619 20.0228 13.5243 20.1812 15.3777 19.5951C16.6014 19.2057 18.2152 18.1922 18.277 17.7796Z" fill="white"/>
<path d="M8.77512 14.8512L13.3905 12.4512" stroke="#5F5F5F" stroke-width="0.3"/>
<path d="M13.0592 11.5064C13.606 11.3556 13.9204 11.4924 14.2647 12.044C14.3093 12.122 14.3324 12.3147 14.3176 12.4791C14.2881 12.808 14.0577 13.085 13.6738 13.2594C12.9787 13.567 12.1315 12.6188 12.5518 11.9929C12.724 11.7379 12.9283 11.5424 13.0592 11.5064Z" fill="#FE9738"/>
<rect x="8.95972" y="4.18359" width="1.10769" height="1.84615" transform="rotate(-21.7239 8.95972 4.18359)" fill="white"/>
<rect x="8.22122" y="4" width="2.21538" height="0.738462" rx="0.369231" transform="rotate(-25.8189 8.22122 4)" fill="white"/>
<circle cx="13.4689" cy="5.65873" r="0.369231" transform="rotate(0.678039 13.4689 5.65873)" fill="#E8E8E8"/>
<circle cx="9.75937" cy="7.09037" r="0.369231" transform="rotate(0.678039 9.75937 7.09037)" fill="#E8E8E8"/>
<circle cx="7.13998" cy="10.0142" r="0.369231" transform="rotate(0.678039 7.13998 10.0142)" fill="#E8E8E8"/>
<circle cx="7.09189" cy="14.0747" r="0.369231" transform="rotate(0.678039 7.09189 14.0747)" fill="#E8E8E8"/>
<circle cx="9.63266" cy="17.7974" r="0.369231" transform="rotate(0.678039 9.63266 17.7974)" fill="#E8E8E8"/>
<circle cx="13.3116" cy="18.9497" r="0.369231" transform="rotate(0.678039 13.3116 18.9497)" fill="#E8E8E8"/>
<path d="M43.398 12.9863C43.398 13.701 43.3035 14.3904 43.1147 15.0545C42.9332 15.7115 42.6718 16.3287 42.3305 16.9062C41.9892 17.4765 41.5825 17.9999 41.1105 18.4763C40.6385 18.9455 40.112 19.3498 39.5311 19.6891C38.9501 20.0284 38.3256 20.2919 37.6575 20.4796C36.9967 20.66 36.3068 20.7503 35.5879 20.7503H30.8823V5.22237H35.5879C36.3068 5.22237 36.9967 5.31622 37.6575 5.50391C38.3256 5.68438 38.9501 5.94426 39.5311 6.28355C40.112 6.62284 40.6385 7.03071 41.1105 7.50716C41.5825 7.97639 41.9892 8.49976 42.3305 9.07727C42.6718 9.64757 42.9332 10.2648 43.1147 10.9289C43.3035 11.5858 43.398 12.2716 43.398 12.9863ZM40.2718 12.9863C40.2718 12.3438 40.1483 11.7411 39.9014 11.178C39.6618 10.6149 39.3277 10.124 38.8993 9.70532C38.4781 9.2794 37.9807 8.94372 37.407 8.69828C36.8406 8.45284 36.2342 8.33012 35.5879 8.33012H34.0302V17.6425H35.5879C36.2342 17.6425 36.8406 17.5234 37.407 17.2852C37.9807 17.0397 38.4781 16.7077 38.8993 16.289C39.3277 15.8631 39.6618 15.3686 39.9014 14.8055C40.1483 14.2352 40.2718 13.6288 40.2718 12.9863Z" fill="white"/>
<path d="M48.1363 20.7503H45.1626V9.15307H45.8815L46.8618 10.5283C47.3411 10.0951 47.8857 9.76307 48.4957 9.53207C49.1057 9.29384 49.7375 9.17473 50.3911 9.17473H53.0162V12.12H50.3911C50.0788 12.12 49.7847 12.1778 49.5087 12.2933C49.2328 12.4088 48.9932 12.5676 48.7898 12.7698C48.5865 12.9719 48.4267 13.2101 48.3106 13.4844C48.1944 13.7587 48.1363 14.0511 48.1363 14.3615V20.7503Z" fill="white"/>
<path d="M58.822 17.9132C58.9382 17.9493 59.0544 17.9746 59.1706 17.989C59.2867 17.9962 59.4029 17.9999 59.5191 17.9999C59.8096 17.9999 60.0892 17.9602 60.3579 17.8807C60.6265 17.8013 60.8771 17.6894 61.1095 17.5451C61.3491 17.3935 61.5597 17.213 61.7412 17.0036C61.93 16.7871 62.0825 16.5489 62.1987 16.289L64.3773 18.4655C64.1013 18.8553 63.7818 19.2054 63.4187 19.5158C63.0629 19.8262 62.6744 20.0897 62.2532 20.3063C61.8393 20.5229 61.3999 20.6853 60.9352 20.7936C60.4777 20.9091 60.0057 20.9668 59.5191 20.9668C58.6985 20.9668 57.9252 20.8152 57.199 20.512C56.4801 20.2088 55.8483 19.7865 55.3037 19.2451C54.7663 18.7037 54.3415 18.0612 54.0292 17.3177C53.717 16.5669 53.5608 15.7439 53.5608 14.8488C53.5608 13.932 53.717 13.0946 54.0292 12.3366C54.3415 11.5786 54.7663 10.9325 55.3037 10.3983C55.8483 9.86414 56.4801 9.44905 57.199 9.15307C57.9252 8.8571 58.6985 8.70911 59.5191 8.70911C60.0057 8.70911 60.4813 8.76686 60.9461 8.88236C61.4108 8.99787 61.8502 9.1639 62.2641 9.38047C62.6853 9.59704 63.0774 9.86414 63.4405 10.1818C63.8036 10.4922 64.1231 10.8423 64.399 11.2321L58.822 17.9132ZM60.347 11.8169C60.209 11.7663 60.071 11.7338 59.933 11.7194C59.8023 11.705 59.6644 11.6977 59.5191 11.6977C59.1125 11.6977 58.7276 11.7735 58.3645 11.9251C58.0087 12.0695 57.6964 12.2789 57.4277 12.5532C57.1663 12.8275 56.9593 13.1596 56.8068 13.5494C56.6543 13.932 56.5781 14.3651 56.5781 14.8488C56.5781 14.9571 56.5817 15.0798 56.589 15.217C56.6035 15.3541 56.6217 15.4949 56.6435 15.6393C56.6725 15.7764 56.7052 15.91 56.7415 16.0399C56.7778 16.1699 56.825 16.2854 56.8831 16.3864L60.347 11.8169Z" fill="white"/>
<path d="M77.1108 20.7503H76.3919L75.2373 19.1585C74.954 19.4112 74.6527 19.6494 74.3332 19.8732C74.0209 20.0897 73.6905 20.281 73.3419 20.4471C72.9934 20.6059 72.6339 20.7322 72.2636 20.8261C71.9005 20.9199 71.5301 20.9668 71.1525 20.9668C70.3319 20.9668 69.5585 20.8297 68.8324 20.5554C68.1134 20.281 67.4817 19.884 66.937 19.3642C66.3997 18.8373 65.9748 18.1948 65.6626 17.4368C65.3503 16.6788 65.1942 15.8161 65.1942 14.8488C65.1942 13.9464 65.3503 13.1199 65.6626 12.3691C65.9748 11.6111 66.3997 10.9614 66.937 10.42C67.4817 9.87857 68.1134 9.45988 68.8324 9.1639C69.5585 8.86071 70.3319 8.70911 71.1525 8.70911C71.5301 8.70911 71.9041 8.75603 72.2745 8.84988C72.6448 8.94372 73.0043 9.07367 73.3528 9.2397C73.7014 9.40574 74.0318 9.60065 74.3441 9.82443C74.6636 10.0482 74.9613 10.2901 75.2373 10.5499L76.3919 9.17473H77.1108V20.7503ZM74.1153 14.8488C74.1153 14.4445 74.0354 14.0547 73.8757 13.6793C73.7232 13.2967 73.5126 12.9611 73.2439 12.6723C72.9752 12.3763 72.6593 12.1417 72.2962 11.9685C71.9404 11.788 71.5592 11.6977 71.1525 11.6977C70.7458 11.6977 70.361 11.7663 69.9979 11.9035C69.6421 12.0406 69.3298 12.2428 69.0611 12.5099C68.7997 12.777 68.5927 13.109 68.4402 13.5061C68.2877 13.8959 68.2115 14.3435 68.2115 14.8488C68.2115 15.3541 68.2877 15.8053 68.4402 16.2023C68.5927 16.5922 68.7997 16.9206 69.0611 17.1877C69.3298 17.4548 69.6421 17.657 69.9979 17.7941C70.361 17.9313 70.7458 17.9999 71.1525 17.9999C71.5592 17.9999 71.9404 17.9132 72.2962 17.74C72.6593 17.5595 72.9752 17.3249 73.2439 17.0361C73.5126 16.7402 73.7232 16.4045 73.8757 16.0291C74.0354 15.6465 74.1153 15.2531 74.1153 14.8488Z" fill="white"/>
<path d="M94.2232 20.7503H91.2604V13.387C91.2604 13.1848 91.2205 12.9935 91.1406 12.8131C91.068 12.6326 90.9627 12.4738 90.8247 12.3366C90.6867 12.1995 90.5269 12.0948 90.3454 12.0226C90.1639 11.9432 89.9714 11.9035 89.7681 11.9035C89.5648 11.9035 89.3723 11.9432 89.1908 12.0226C89.0165 12.0948 88.8604 12.1995 88.7224 12.3366C88.5917 12.4738 88.4864 12.6326 88.4065 12.8131C88.3339 12.9935 88.2976 13.1848 88.2976 13.387V20.7503H85.3239V13.387C85.3239 13.1848 85.2839 12.9935 85.2041 12.8131C85.1314 12.6326 85.0261 12.4738 84.8882 12.3366C84.7502 12.1995 84.5904 12.0948 84.4089 12.0226C84.2273 11.9432 84.0349 11.9035 83.8316 11.9035C83.6282 11.9035 83.4358 11.9432 83.2543 12.0226C83.08 12.0948 82.9239 12.1995 82.7859 12.3366C82.6552 12.4738 82.5499 12.6326 82.47 12.8131C82.3974 12.9935 82.3611 13.1848 82.3611 13.387V20.7503H79.3874V9.15307H80.1063L80.9123 10.041C81.3263 9.69449 81.7801 9.42739 82.2739 9.2397C82.775 9.04479 83.2942 8.94733 83.8316 8.94733C84.3762 8.94733 84.9063 9.0484 85.4219 9.25053C85.9448 9.45266 86.4023 9.80278 86.7944 10.3009C86.9759 10.0554 87.1829 9.84609 87.4153 9.67284C87.6477 9.49958 87.8909 9.35881 88.1451 9.25053C88.4065 9.14224 88.6752 9.06645 88.9511 9.02313C89.2271 8.9726 89.4994 8.94733 89.7681 8.94733C90.3853 8.94733 90.9627 9.06284 91.5 9.29384C92.0447 9.52485 92.5167 9.84248 92.9161 10.2467C93.3227 10.6438 93.6423 11.113 93.8746 11.6544C94.107 12.1958 94.2232 12.7734 94.2232 13.387V20.7503Z" fill="white"/>
<path d="M102.807 20.7503H96.0096V17.8049H102.807C103.01 17.8049 103.184 17.7328 103.329 17.5884C103.475 17.444 103.547 17.2707 103.547 17.0686C103.547 16.8593 103.475 16.7221 103.329 16.6571C103.184 16.5922 103.01 16.5597 102.807 16.5597H99.7131C99.1975 16.5597 98.7146 16.4622 98.2644 16.2673C97.8142 16.0724 97.422 15.8089 97.088 15.4768C96.7539 15.1376 96.4889 14.7441 96.2928 14.2966C96.104 13.849 96.0096 13.3689 96.0096 12.8564C96.0096 12.3438 96.104 11.8638 96.2928 11.4162C96.4889 10.9686 96.7539 10.5788 97.088 10.2467C97.422 9.91467 97.8142 9.65479 98.2644 9.4671C98.7146 9.27219 99.1975 9.17473 99.7131 9.17473H105.737V12.12H99.7131C99.5098 12.12 99.3355 12.1922 99.1903 12.3366C99.045 12.481 98.9724 12.6542 98.9724 12.8564C98.9724 13.0657 99.045 13.2462 99.1903 13.3978C99.3355 13.5422 99.5098 13.6144 99.7131 13.6144H102.807C103.315 13.6144 103.794 13.701 104.244 13.8742C104.695 14.0403 105.087 14.2749 105.421 14.5781C105.755 14.8813 106.02 15.2458 106.216 15.6718C106.412 16.0977 106.51 16.5633 106.51 17.0686C106.51 17.5812 106.412 18.0612 106.216 18.5088C106.02 18.9491 105.755 19.339 105.421 19.6783C105.087 20.0103 104.695 20.2738 104.244 20.4687C103.794 20.6564 103.315 20.7503 102.807 20.7503Z" fill="white"/>
<path d="M121.226 20.7503H118.111V8.33012H113.416V5.22237H125.91V8.33012H121.226V20.7503Z" fill="white"/>
<path d="M130.757 6.00201C130.757 6.27633 130.703 6.53261 130.594 6.77083C130.492 7.00905 130.351 7.2184 130.169 7.39888C129.988 7.57213 129.773 7.7129 129.526 7.82118C129.287 7.92225 129.029 7.97278 128.753 7.97278C128.477 7.97278 128.216 7.92225 127.969 7.82118C127.729 7.7129 127.519 7.57213 127.337 7.39888C127.163 7.2184 127.021 7.00905 126.912 6.77083C126.81 6.53261 126.76 6.27633 126.76 6.00201C126.76 5.73492 126.81 5.48225 126.912 5.24403C127.021 4.99859 127.163 4.78924 127.337 4.61598C127.519 4.43551 127.729 4.29474 127.969 4.19368C128.216 4.08539 128.477 4.03125 128.753 4.03125C129.029 4.03125 129.287 4.08539 129.526 4.19368C129.773 4.29474 129.988 4.43551 130.169 4.61598C130.351 4.78924 130.492 4.99859 130.594 5.24403C130.703 5.48225 130.757 5.73492 130.757 6.00201ZM130.245 20.7503H127.25V9.15307H130.245V20.7503Z" fill="white"/>
<path d="M147.358 20.7503H144.395V13.387C144.395 13.1848 144.355 12.9935 144.275 12.8131C144.202 12.6326 144.097 12.4738 143.959 12.3366C143.821 12.1995 143.661 12.0948 143.48 12.0226C143.298 11.9432 143.106 11.9035 142.903 11.9035C142.699 11.9035 142.507 11.9432 142.325 12.0226C142.151 12.0948 141.995 12.1995 141.857 12.3366C141.726 12.4738 141.621 12.6326 141.541 12.8131C141.468 12.9935 141.432 13.1848 141.432 13.387V20.7503H138.458V13.387C138.458 13.1848 138.418 12.9935 138.339 12.8131C138.266 12.6326 138.161 12.4738 138.023 12.3366C137.885 12.1995 137.725 12.0948 137.543 12.0226C137.362 11.9432 137.169 11.9035 136.966 11.9035C136.763 11.9035 136.57 11.9432 136.389 12.0226C136.214 12.0948 136.058 12.1995 135.92 12.3366C135.79 12.4738 135.684 12.6326 135.604 12.8131C135.532 12.9935 135.496 13.1848 135.496 13.387V20.7503H132.522V9.15307H133.241L134.047 10.041C134.461 9.69449 134.915 9.42739 135.408 9.2397C135.91 9.04479 136.429 8.94733 136.966 8.94733C137.511 8.94733 138.041 9.0484 138.556 9.25053C139.079 9.45266 139.537 9.80278 139.929 10.3009C140.11 10.0554 140.317 9.84609 140.55 9.67284C140.782 9.49958 141.025 9.35881 141.28 9.25053C141.541 9.14224 141.81 9.06645 142.086 9.02313C142.362 8.9726 142.634 8.94733 142.903 8.94733C143.52 8.94733 144.097 9.06284 144.635 9.29384C145.179 9.52485 145.651 9.84248 146.051 10.2467C146.457 10.6438 146.777 11.113 147.009 11.6544C147.242 12.1958 147.358 12.7734 147.358 13.387V20.7503Z" fill="white"/>
<path d="M154.177 17.9132C154.293 17.9493 154.409 17.9746 154.525 17.989C154.641 17.9962 154.757 17.9999 154.874 17.9999C155.164 17.9999 155.444 17.9602 155.712 17.8807C155.981 17.8013 156.232 17.6894 156.464 17.5451C156.704 17.3935 156.914 17.213 157.096 17.0036C157.285 16.7871 157.437 16.5489 157.553 16.289L159.732 18.4655C159.456 18.8553 159.136 19.2054 158.773 19.5158C158.417 19.8262 158.029 20.0897 157.608 20.3063C157.194 20.5229 156.754 20.6853 156.29 20.7936C155.832 20.9091 155.36 20.9668 154.874 20.9668C154.053 20.9668 153.28 20.8152 152.554 20.512C151.835 20.2088 151.203 19.7865 150.658 19.2451C150.121 18.7037 149.696 18.0612 149.384 17.3177C149.071 16.5669 148.915 15.7439 148.915 14.8488C148.915 13.932 149.071 13.0946 149.384 12.3366C149.696 11.5786 150.121 10.9325 150.658 10.3983C151.203 9.86414 151.835 9.44905 152.554 9.15307C153.28 8.8571 154.053 8.70911 154.874 8.70911C155.36 8.70911 155.836 8.76686 156.301 8.88236C156.765 8.99787 157.205 9.1639 157.619 9.38047C158.04 9.59704 158.432 9.86414 158.795 10.1818C159.158 10.4922 159.478 10.8423 159.754 11.2321L154.177 17.9132ZM155.701 11.8169C155.564 11.7663 155.426 11.7338 155.288 11.7194C155.157 11.705 155.019 11.6977 154.874 11.6977C154.467 11.6977 154.082 11.7735 153.719 11.9251C153.363 12.0695 153.051 12.2789 152.782 12.5532C152.521 12.8275 152.314 13.1596 152.161 13.5494C152.009 13.932 151.933 14.3651 151.933 14.8488C151.933 14.9571 151.936 15.0798 151.944 15.217C151.958 15.3541 151.976 15.4949 151.998 15.6393C152.027 15.7764 152.06 15.91 152.096 16.0399C152.132 16.1699 152.18 16.2854 152.238 16.3864L155.701 11.8169Z" fill="white"/>
<path d="M164.23 20.7503H161.257V9.15307H161.976L162.956 10.5283C163.435 10.0951 163.98 9.76307 164.59 9.53207C165.2 9.29384 165.832 9.17473 166.485 9.17473H169.11V12.12H166.485C166.173 12.12 165.879 12.1778 165.603 12.2933C165.327 12.4088 165.087 12.5676 164.884 12.7698C164.681 12.9719 164.521 13.2101 164.405 13.4844C164.289 13.7587 164.23 14.0511 164.23 14.3615V20.7503Z" fill="white"/>
</svg>
