<svg width="169" height="24" viewBox="0 0 169 24" fill="none" xmlns="http://www.w3.org/2000/svg">
<path d="M0 3.69231C0 1.6531 1.6531 0 3.69231 0H16.6154C20.6938 0 24 3.30621 24 7.38462V20.3077C24 22.3469 22.3469 24 20.3077 24H3.69231C1.6531 24 0 22.3469 0 20.3077V3.69231Z" fill="#3550DC"/>
<path d="M18.5549 13.9437C18.6895 13.9746 18.8236 13.8905 18.8545 13.756C18.8853 13.6214 18.8013 13.4873 18.6667 13.4564L18.6108 13.7001L18.5549 13.9437ZM15.2345 10.8726C15.3529 10.8015 15.3913 10.648 15.3203 10.5296C15.2492 10.4112 15.0957 10.3728 14.9773 10.4438L15.1059 10.6582L15.2345 10.8726ZM12.8053 12.3681L12.7494 12.6117L18.5549 13.9437L18.6108 13.7001L18.6667 13.4564L12.8612 12.1244L12.8053 12.3681ZM13.2597 11.7659L13.3884 11.9803L15.2345 10.8726L15.1059 10.6582L14.9773 10.4438L13.1311 11.5515L13.2597 11.7659Z" fill="#A1B0FC"/>
<path d="M11.7666 12.4922L12.4023 13.123H12.4033L12.2978 13.2295L12.9336 13.8604L13.039 13.7529L13.6748 14.3838L13.5693 14.4912L13.8877 14.8066C14.002 14.9201 14.1126 15.0302 14.2197 15.1367L14.3242 15.0312C14.5634 15.2692 14.7848 15.4894 14.9873 15.6924H14.9883L14.8828 15.7979C15.1304 16.046 15.3502 16.2683 15.542 16.4629L15.6474 16.3574C15.9239 16.6379 16.1411 16.8633 16.2998 17.0303L16.1933 17.1328C16.2876 17.232 16.3598 17.3098 16.4101 17.3662C16.4354 17.3945 16.4547 17.4165 16.4677 17.4326C16.4722 17.4381 16.4752 17.4423 16.4775 17.4453C16.4828 17.4582 16.489 17.4733 16.4941 17.4893L16.6328 17.4443C16.6471 17.4891 16.6608 17.5363 16.666 17.5781H16.667L16.5185 17.5967C16.5197 17.6061 16.5203 17.614 16.5205 17.6201C16.5205 17.6219 16.5205 17.6237 16.5205 17.625C16.5188 17.6363 16.5092 17.667 16.4726 17.7178C16.4377 17.7663 16.3858 17.824 16.3174 17.8887L16.4189 17.9951C16.2504 18.1545 16.0087 18.3364 15.7246 18.5186L15.6445 18.3936C15.4184 18.5385 15.1652 18.6846 14.9023 18.8203L14.9687 18.9492C14.7084 19.0836 14.4405 19.2105 14.1787 19.3145L14.124 19.1768L13.7246 19.3203C13.5727 19.3683 13.4191 19.4114 13.2646 19.4492L13.2998 19.5928C12.9836 19.6702 12.6631 19.7278 12.3398 19.7637L12.3242 19.6152C12.0078 19.6504 11.689 19.6652 11.3701 19.6602L11.3681 19.8076C11.0434 19.8025 10.719 19.7771 10.3965 19.7314L10.417 19.5859C10.1022 19.5413 9.78963 19.4772 9.48141 19.3936L9.44235 19.5371C9.1294 19.4522 8.8214 19.3467 8.5195 19.2227L8.57614 19.0859C8.42905 19.0255 8.28321 18.9604 8.13962 18.8906H8.14059C7.93804 18.7908 7.76559 18.7016 7.60934 18.6113L7.53415 18.7402C7.18409 18.538 6.90685 18.3306 6.55856 18.0117L6.66013 17.9023C6.52839 17.7817 6.38548 17.644 6.2236 17.4834L5.7988 17.0469L5.68845 17.1484C5.36733 16.8025 5.15855 16.5258 4.95016 16.1699L5.07907 16.0947C4.98756 15.9385 4.89586 15.7654 4.79294 15.5615C4.71987 15.4149 4.65165 15.2664 4.58884 15.1162L4.45114 15.1729C4.3219 14.8637 4.21274 14.5481 4.12595 14.2275L4.27145 14.1885C4.18572 13.8718 4.12087 13.5502 4.07712 13.2266L3.92868 13.2471H3.9277C3.8829 12.9157 3.86024 12.5819 3.85837 12.248H4.00876C4.00689 11.9209 4.02549 11.5937 4.0654 11.2686L3.91696 11.25L3.91599 11.249C3.95656 10.9189 4.01896 10.5911 4.10153 10.2676L4.24704 10.3047C4.32774 9.98863 4.42846 9.6763 4.54977 9.37109L4.4111 9.31543C4.53375 9.00693 4.67571 8.70441 4.83884 8.41113L4.97067 8.48438C5.04988 8.34197 5.13373 8.20143 5.22263 8.06348L5.2236 8.0625C5.28382 7.96769 5.35477 7.86688 5.43356 7.7627L5.31442 7.67285C5.45619 7.48542 5.62144 7.28817 5.80075 7.09375L5.9111 7.19531C6.078 7.01435 6.25691 6.83519 6.43747 6.66699L6.33493 6.55762C6.52838 6.3774 6.72422 6.2097 6.9111 6.06543L7.00192 6.18457C7.10535 6.10471 7.20533 6.03199 7.29977 5.96973C7.4308 5.88395 7.56406 5.80351 7.69821 5.72656L7.62399 5.59668C7.90182 5.43734 8.1857 5.29621 8.47458 5.17383L8.53317 5.31152C8.8218 5.18926 9.11539 5.08571 9.41208 5.00098L9.37106 4.85645C9.67773 4.76887 9.98786 4.70078 10.2998 4.65234L10.3222 4.80078C10.6304 4.75293 10.9409 4.72484 11.2509 4.71582L11.2461 4.56641C11.5629 4.55718 11.8798 4.56822 12.1953 4.59863L12.1816 4.74707C12.4904 4.77689 12.7984 4.82608 13.1025 4.89453L13.1338 4.74805C13.442 4.81737 13.7467 4.90655 14.0468 5.01465L13.997 5.15527C14.2873 5.25987 14.573 5.38288 14.8525 5.52441L14.9199 5.3916C15.2001 5.53351 15.4738 5.6939 15.7402 5.87207L15.6572 5.99512C15.7858 6.08114 15.9132 6.17195 16.0381 6.2666C16.1068 6.31884 16.1664 6.36706 16.2177 6.41113L16.3144 6.29688C16.4828 6.44148 16.5736 6.55678 16.6064 6.66797L16.4648 6.70996C16.4763 6.7491 16.4741 6.78928 16.455 6.84473C16.4534 6.84709 16.4523 6.85128 16.4492 6.85547C16.4381 6.87052 16.4203 6.89174 16.3965 6.91992C16.3488 6.97617 16.2782 7.05434 16.1826 7.15723L16.29 7.25781C16.1369 7.42254 15.9237 7.64649 15.6425 7.93555L15.5371 7.83203C15.3493 8.02506 15.1309 8.24795 14.8808 8.50195L14.9873 8.60742C14.788 8.80982 14.5681 9.03202 14.3271 9.27539L14.2207 9.16992L13.8906 9.50293L13.5722 9.82422L13.6787 9.92969L13.041 10.5713L12.9355 10.4658L12.2988 11.1084L12.4043 11.2129L11.7675 11.8555L11.6611 11.75L11.3427 12.0713L11.2373 12.1777L11.3437 12.2832L11.6621 12.5986L11.7666 12.4922Z" stroke="#8E9AFF" stroke-width="0.3" stroke-dasharray="1 1"/>
<path d="M12.3846 13.351L12.2423 13.1467C12.1763 13.1923 12.1007 13.2347 12.0162 13.2731C11.8822 13.3316 11.7377 13.3325 11.5928 13.2854L11.5154 13.5239C11.1291 13.3985 10.8015 13.0313 10.7249 12.6421L10.9682 12.594C10.9468 12.4848 10.9532 12.3798 10.9921 12.2832L11.0423 12.1892C11.0777 12.1368 11.1141 12.0869 11.1509 12.0406L10.958 11.8866C11.0541 11.7658 11.1517 11.664 11.2412 11.5938L11.3942 11.7896C11.4192 11.7698 11.4402 11.7558 11.4568 11.7463L11.4824 11.7334L11.671 11.6921C11.7281 11.6829 11.7802 11.6779 11.8282 11.6774L11.8263 11.4271C12.11 11.424 12.3332 11.5331 12.5495 11.775L12.3642 11.9398C12.4327 12.0163 12.5042 12.1127 12.5795 12.2326C12.5801 12.2341 12.5811 12.2365 12.5823 12.2401C12.5854 12.2494 12.5887 12.2631 12.5924 12.2806L12.8365 12.2284C12.851 12.2959 12.8609 12.3781 12.8625 12.462L12.862 12.4802L12.6125 12.4815C12.6127 12.517 12.612 12.5522 12.6091 12.5848C12.6024 12.6587 12.5826 12.7293 12.5521 12.7962L12.7797 12.899C12.7012 13.0718 12.5671 13.2246 12.3846 13.351Z" fill="#3550DC" stroke="#636EC2" stroke-width="0.5" stroke-dasharray="1 1"/>
<path d="M17.777 17.2796C17.7847 17.2161 17.7564 17.0933 17.7204 17.0102C17.6685 16.9113 16.7727 15.9909 15.1009 14.3321L12.5573 11.8084L15.1047 9.24094C16.9096 7.42182 17.6639 6.63774 17.7031 6.53449C17.7894 6.29625 17.6777 6.11429 17.2362 5.77899C14.6035 3.78298 11.0979 3.66192 8.32551 5.47691C7.61759 5.9436 6.65389 6.90693 6.20464 7.61447C4.72673 9.90812 4.5598 12.839 5.76675 15.2609C6.19034 16.0998 6.44547 16.4477 7.22566 17.2218C8.00585 17.9959 8.35975 18.2523 9.18211 18.6575C10.9619 19.5228 13.0243 19.6812 14.8777 19.0951C16.1014 18.7057 17.7152 17.6922 17.777 17.2796Z" fill="white"/>
<path d="M8.27512 14.3512L12.8905 11.9512" stroke="#5F5F5F" stroke-width="0.3"/>
<path d="M12.5592 11.0064C13.106 10.8556 13.4204 10.9924 13.7647 11.544C13.8093 11.622 13.8324 11.8147 13.8176 11.9791C13.7881 12.308 13.5577 12.585 13.1738 12.7594C12.4787 13.067 11.6315 12.1188 12.0518 11.4929C12.224 11.2379 12.4283 11.0424 12.5592 11.0064Z" fill="#FE9738"/>
<rect x="8.45972" y="3.68359" width="1.10769" height="1.84615" transform="rotate(-21.7239 8.45972 3.68359)" fill="white"/>
<rect x="7.72122" y="3.5" width="2.21538" height="0.738462" rx="0.369231" transform="rotate(-25.8189 7.72122 3.5)" fill="white"/>
<circle cx="12.9689" cy="5.15873" r="0.369231" transform="rotate(0.678039 12.9689 5.15873)" fill="#E8E8E8"/>
<circle cx="9.25937" cy="6.59037" r="0.369231" transform="rotate(0.678039 9.25937 6.59037)" fill="#E8E8E8"/>
<circle cx="6.63998" cy="9.5142" r="0.369231" transform="rotate(0.678039 6.63998 9.5142)" fill="#E8E8E8"/>
<circle cx="6.59189" cy="13.5747" r="0.369231" transform="rotate(0.678039 6.59189 13.5747)" fill="#E8E8E8"/>
<circle cx="9.13266" cy="17.2974" r="0.369231" transform="rotate(0.678039 9.13266 17.2974)" fill="#E8E8E8"/>
<circle cx="12.8116" cy="18.4497" r="0.369231" transform="rotate(0.678039 12.8116 18.4497)" fill="#E8E8E8"/>
<path d="M42.898 12.4863C42.898 13.201 42.8035 13.8904 42.6147 14.5545C42.4332 15.2115 42.1718 15.8287 41.8305 16.4062C41.4892 16.9765 41.0825 17.4999 40.6105 17.9763C40.1385 18.4455 39.612 18.8498 39.0311 19.1891C38.4501 19.5284 37.8256 19.7919 37.1575 19.9796C36.4967 20.16 35.8068 20.2503 35.0879 20.2503H30.3823V4.72237H35.0879C35.8068 4.72237 36.4967 4.81622 37.1575 5.00391C37.8256 5.18438 38.4501 5.44426 39.0311 5.78355C39.612 6.12284 40.1385 6.53071 40.6105 7.00716C41.0825 7.47639 41.4892 7.99976 41.8305 8.57727C42.1718 9.14757 42.4332 9.76479 42.6147 10.4289C42.8035 11.0858 42.898 11.7716 42.898 12.4863ZM39.7718 12.4863C39.7718 11.8438 39.6483 11.2411 39.4014 10.678C39.1618 10.1149 38.8277 9.62402 38.3993 9.20532C37.9781 8.7794 37.4807 8.44372 36.907 8.19828C36.3406 7.95284 35.7342 7.83012 35.0879 7.83012H33.5302V17.1425H35.0879C35.7342 17.1425 36.3406 17.0234 36.907 16.7852C37.4807 16.5397 37.9781 16.2077 38.3993 15.789C38.8277 15.3631 39.1618 14.8686 39.4014 14.3055C39.6483 13.7352 39.7718 13.1288 39.7718 12.4863Z" fill="#01060B"/>
<path d="M47.6363 20.2503H44.6626V8.65307H45.3815L46.3618 10.0283C46.8411 9.59514 47.3857 9.26307 47.9957 9.03207C48.6057 8.79384 49.2375 8.67473 49.8911 8.67473H52.5162V11.62H49.8911C49.5788 11.62 49.2847 11.6778 49.0087 11.7933C48.7328 11.9088 48.4932 12.0676 48.2898 12.2698C48.0865 12.4719 47.9267 12.7101 47.8106 12.9844C47.6944 13.2587 47.6363 13.5511 47.6363 13.8615V20.2503Z" fill="#01060B"/>
<path d="M58.322 17.4132C58.4382 17.4493 58.5544 17.4746 58.6706 17.489C58.7867 17.4962 58.9029 17.4999 59.0191 17.4999C59.3096 17.4999 59.5892 17.4602 59.8579 17.3807C60.1265 17.3013 60.3771 17.1894 60.6095 17.0451C60.8491 16.8935 61.0597 16.713 61.2412 16.5036C61.43 16.2871 61.5825 16.0489 61.6987 15.789L63.8773 17.9655C63.6013 18.3553 63.2818 18.7054 62.9187 19.0158C62.5629 19.3262 62.1744 19.5897 61.7532 19.8063C61.3393 20.0229 60.8999 20.1853 60.4352 20.2936C59.9777 20.4091 59.5057 20.4668 59.0191 20.4668C58.1985 20.4668 57.4252 20.3152 56.699 20.012C55.9801 19.7088 55.3483 19.2865 54.8037 18.7451C54.2663 18.2037 53.8415 17.5612 53.5292 16.8177C53.217 16.0669 53.0608 15.2439 53.0608 14.3488C53.0608 13.432 53.217 12.5946 53.5292 11.8366C53.8415 11.0786 54.2663 10.4325 54.8037 9.89834C55.3483 9.36414 55.9801 8.94905 56.699 8.65307C57.4252 8.3571 58.1985 8.20911 59.0191 8.20911C59.5057 8.20911 59.9813 8.26686 60.4461 8.38236C60.9108 8.49787 61.3502 8.6639 61.7641 8.88047C62.1853 9.09704 62.5774 9.36414 62.9405 9.68177C63.3036 9.99218 63.6231 10.3423 63.899 10.7321L58.322 17.4132ZM59.847 11.3169C59.709 11.2663 59.571 11.2338 59.433 11.2194C59.3023 11.205 59.1644 11.1977 59.0191 11.1977C58.6125 11.1977 58.2276 11.2735 57.8645 11.4251C57.5087 11.5695 57.1964 11.7789 56.9277 12.0532C56.6663 12.3275 56.4593 12.6596 56.3068 13.0494C56.1543 13.432 56.0781 13.8651 56.0781 14.3488C56.0781 14.4571 56.0817 14.5798 56.089 14.717C56.1035 14.8541 56.1217 14.9949 56.1435 15.1393C56.1725 15.2764 56.2052 15.41 56.2415 15.5399C56.2778 15.6699 56.325 15.7854 56.3831 15.8864L59.847 11.3169Z" fill="#01060B"/>
<path d="M76.6108 20.2503H75.8919L74.7373 18.6585C74.454 18.9112 74.1527 19.1494 73.8332 19.3732C73.5209 19.5897 73.1905 19.781 72.8419 19.9471C72.4934 20.1059 72.1339 20.2322 71.7636 20.3261C71.4005 20.4199 71.0301 20.4668 70.6525 20.4668C69.8319 20.4668 69.0585 20.3297 68.3324 20.0554C67.6134 19.781 66.9817 19.384 66.437 18.8642C65.8997 18.3373 65.4748 17.6948 65.1626 16.9368C64.8503 16.1788 64.6942 15.3161 64.6942 14.3488C64.6942 13.4464 64.8503 12.6199 65.1626 11.8691C65.4748 11.1111 65.8997 10.4614 66.437 9.91999C66.9817 9.37857 67.6134 8.95988 68.3324 8.6639C69.0585 8.36071 69.8319 8.20911 70.6525 8.20911C71.0301 8.20911 71.4041 8.25603 71.7745 8.34988C72.1448 8.44372 72.5043 8.57367 72.8528 8.7397C73.2014 8.90574 73.5318 9.10065 73.8441 9.32443C74.1636 9.54822 74.4613 9.79005 74.7373 10.0499L75.8919 8.67473H76.6108V20.2503ZM73.6153 14.3488C73.6153 13.9445 73.5354 13.5547 73.3757 13.1793C73.2232 12.7967 73.0126 12.4611 72.7439 12.1723C72.4752 11.8763 72.1593 11.6417 71.7962 11.4685C71.4404 11.288 71.0592 11.1977 70.6525 11.1977C70.2458 11.1977 69.861 11.2663 69.4979 11.4035C69.1421 11.5406 68.8298 11.7428 68.5611 12.0099C68.2997 12.277 68.0927 12.609 67.9402 13.0061C67.7877 13.3959 67.7115 13.8435 67.7115 14.3488C67.7115 14.8541 67.7877 15.3053 67.9402 15.7023C68.0927 16.0922 68.2997 16.4206 68.5611 16.6877C68.8298 16.9548 69.1421 17.157 69.4979 17.2941C69.861 17.4313 70.2458 17.4999 70.6525 17.4999C71.0592 17.4999 71.4404 17.4132 71.7962 17.24C72.1593 17.0595 72.4752 16.8249 72.7439 16.5361C73.0126 16.2402 73.2232 15.9045 73.3757 15.5291C73.5354 15.1465 73.6153 14.7531 73.6153 14.3488Z" fill="#01060B"/>
<path d="M93.7232 20.2503H90.7604V12.887C90.7604 12.6848 90.7205 12.4935 90.6406 12.3131C90.568 12.1326 90.4627 11.9738 90.3247 11.8366C90.1867 11.6995 90.0269 11.5948 89.8454 11.5226C89.6639 11.4432 89.4714 11.4035 89.2681 11.4035C89.0648 11.4035 88.8723 11.4432 88.6908 11.5226C88.5165 11.5948 88.3604 11.6995 88.2224 11.8366C88.0917 11.9738 87.9864 12.1326 87.9065 12.3131C87.8339 12.4935 87.7976 12.6848 87.7976 12.887V20.2503H84.8239V12.887C84.8239 12.6848 84.7839 12.4935 84.7041 12.3131C84.6314 12.1326 84.5261 11.9738 84.3882 11.8366C84.2502 11.6995 84.0904 11.5948 83.9089 11.5226C83.7273 11.4432 83.5349 11.4035 83.3316 11.4035C83.1282 11.4035 82.9358 11.4432 82.7543 11.5226C82.58 11.5948 82.4239 11.6995 82.2859 11.8366C82.1552 11.9738 82.0499 12.1326 81.97 12.3131C81.8974 12.4935 81.8611 12.6848 81.8611 12.887V20.2503H78.8874V8.65307H79.6063L80.4123 9.541C80.8263 9.19449 81.2801 8.92739 81.7739 8.7397C82.275 8.54479 82.7942 8.44733 83.3316 8.44733C83.8762 8.44733 84.4063 8.5484 84.9219 8.75053C85.4448 8.95266 85.9023 9.30278 86.2944 9.80088C86.4759 9.55544 86.6829 9.34609 86.9153 9.17284C87.1477 8.99958 87.3909 8.85881 87.6451 8.75053C87.9065 8.64224 88.1752 8.56645 88.4511 8.52313C88.7271 8.4726 88.9994 8.44733 89.2681 8.44733C89.8853 8.44733 90.4627 8.56284 91 8.79384C91.5447 9.02485 92.0167 9.34248 92.4161 9.74674C92.8227 10.1438 93.1423 10.613 93.3746 11.1544C93.607 11.6958 93.7232 12.2734 93.7232 12.887V20.2503Z" fill="#01060B"/>
<path d="M102.307 20.2503H95.5096V17.3049H102.307C102.51 17.3049 102.684 17.2328 102.829 17.0884C102.975 16.944 103.047 16.7707 103.047 16.5686C103.047 16.3593 102.975 16.2221 102.829 16.1571C102.684 16.0922 102.51 16.0597 102.307 16.0597H99.2131C98.6975 16.0597 98.2146 15.9622 97.7644 15.7673C97.3142 15.5724 96.922 15.3089 96.588 14.9768C96.2539 14.6376 95.9889 14.2441 95.7928 13.7966C95.604 13.349 95.5096 12.8689 95.5096 12.3564C95.5096 11.8438 95.604 11.3638 95.7928 10.9162C95.9889 10.4686 96.2539 10.0788 96.588 9.74674C96.922 9.41467 97.3142 9.15479 97.7644 8.9671C98.2146 8.77219 98.6975 8.67473 99.2131 8.67473H105.237V11.62H99.2131C99.0098 11.62 98.8355 11.6922 98.6903 11.8366C98.545 11.981 98.4724 12.1542 98.4724 12.3564C98.4724 12.5657 98.545 12.7462 98.6903 12.8978C98.8355 13.0422 99.0098 13.1144 99.2131 13.1144H102.307C102.815 13.1144 103.294 13.201 103.744 13.3742C104.195 13.5403 104.587 13.7749 104.921 14.0781C105.255 14.3813 105.52 14.7458 105.716 15.1718C105.912 15.5977 106.01 16.0633 106.01 16.5686C106.01 17.0812 105.912 17.5612 105.716 18.0088C105.52 18.4491 105.255 18.839 104.921 19.1783C104.587 19.5103 104.195 19.7738 103.744 19.9687C103.294 20.1564 102.815 20.2503 102.307 20.2503Z" fill="#01060B"/>
<path d="M120.726 20.2503H117.611V7.83012H112.916V4.72237H125.41V7.83012H120.726V20.2503Z" fill="#01060B"/>
<path d="M130.257 5.50201C130.257 5.77633 130.203 6.03261 130.094 6.27083C129.992 6.50905 129.851 6.7184 129.669 6.89888C129.488 7.07213 129.273 7.2129 129.026 7.32118C128.787 7.42225 128.529 7.47278 128.253 7.47278C127.977 7.47278 127.716 7.42225 127.469 7.32118C127.229 7.2129 127.019 7.07213 126.837 6.89888C126.663 6.7184 126.521 6.50905 126.412 6.27083C126.31 6.03261 126.26 5.77633 126.26 5.50201C126.26 5.23492 126.31 4.98225 126.412 4.74403C126.521 4.49859 126.663 4.28924 126.837 4.11598C127.019 3.93551 127.229 3.79474 127.469 3.69368C127.716 3.58539 127.977 3.53125 128.253 3.53125C128.529 3.53125 128.787 3.58539 129.026 3.69368C129.273 3.79474 129.488 3.93551 129.669 4.11598C129.851 4.28924 129.992 4.49859 130.094 4.74403C130.203 4.98225 130.257 5.23492 130.257 5.50201ZM129.745 20.2503H126.75V8.65307H129.745V20.2503Z" fill="#01060B"/>
<path d="M146.858 20.2503H143.895V12.887C143.895 12.6848 143.855 12.4935 143.775 12.3131C143.702 12.1326 143.597 11.9738 143.459 11.8366C143.321 11.6995 143.161 11.5948 142.98 11.5226C142.798 11.4432 142.606 11.4035 142.403 11.4035C142.199 11.4035 142.007 11.4432 141.825 11.5226C141.651 11.5948 141.495 11.6995 141.357 11.8366C141.226 11.9738 141.121 12.1326 141.041 12.3131C140.968 12.4935 140.932 12.6848 140.932 12.887V20.2503H137.958V12.887C137.958 12.6848 137.918 12.4935 137.839 12.3131C137.766 12.1326 137.661 11.9738 137.523 11.8366C137.385 11.6995 137.225 11.5948 137.043 11.5226C136.862 11.4432 136.669 11.4035 136.466 11.4035C136.263 11.4035 136.07 11.4432 135.889 11.5226C135.714 11.5948 135.558 11.6995 135.42 11.8366C135.29 11.9738 135.184 12.1326 135.104 12.3131C135.032 12.4935 134.996 12.6848 134.996 12.887V20.2503H132.022V8.65307H132.741L133.547 9.541C133.961 9.19449 134.415 8.92739 134.908 8.7397C135.41 8.54479 135.929 8.44733 136.466 8.44733C137.011 8.44733 137.541 8.5484 138.056 8.75053C138.579 8.95266 139.037 9.30278 139.429 9.80088C139.61 9.55544 139.817 9.34609 140.05 9.17284C140.282 8.99958 140.525 8.85881 140.78 8.75053C141.041 8.64224 141.31 8.56645 141.586 8.52313C141.862 8.4726 142.134 8.44733 142.403 8.44733C143.02 8.44733 143.597 8.56284 144.135 8.79384C144.679 9.02485 145.151 9.34248 145.551 9.74674C145.957 10.1438 146.277 10.613 146.509 11.1544C146.742 11.6958 146.858 12.2734 146.858 12.887V20.2503Z" fill="#01060B"/>
<path d="M153.677 17.4132C153.793 17.4493 153.909 17.4746 154.025 17.489C154.141 17.4962 154.257 17.4999 154.374 17.4999C154.664 17.4999 154.944 17.4602 155.212 17.3807C155.481 17.3013 155.732 17.1894 155.964 17.0451C156.204 16.8935 156.414 16.713 156.596 16.5036C156.785 16.2871 156.937 16.0489 157.053 15.789L159.232 17.9655C158.956 18.3553 158.636 18.7054 158.273 19.0158C157.917 19.3262 157.529 19.5897 157.108 19.8063C156.694 20.0229 156.254 20.1853 155.79 20.2936C155.332 20.4091 154.86 20.4668 154.374 20.4668C153.553 20.4668 152.78 20.3152 152.054 20.012C151.335 19.7088 150.703 19.2865 150.158 18.7451C149.621 18.2037 149.196 17.5612 148.884 16.8177C148.571 16.0669 148.415 15.2439 148.415 14.3488C148.415 13.432 148.571 12.5946 148.884 11.8366C149.196 11.0786 149.621 10.4325 150.158 9.89834C150.703 9.36414 151.335 8.94905 152.054 8.65307C152.78 8.3571 153.553 8.20911 154.374 8.20911C154.86 8.20911 155.336 8.26686 155.801 8.38236C156.265 8.49787 156.705 8.6639 157.119 8.88047C157.54 9.09704 157.932 9.36414 158.295 9.68177C158.658 9.99218 158.978 10.3423 159.254 10.7321L153.677 17.4132ZM155.201 11.3169C155.064 11.2663 154.926 11.2338 154.788 11.2194C154.657 11.205 154.519 11.1977 154.374 11.1977C153.967 11.1977 153.582 11.2735 153.219 11.4251C152.863 11.5695 152.551 11.7789 152.282 12.0532C152.021 12.3275 151.814 12.6596 151.661 13.0494C151.509 13.432 151.433 13.8651 151.433 14.3488C151.433 14.4571 151.436 14.5798 151.444 14.717C151.458 14.8541 151.476 14.9949 151.498 15.1393C151.527 15.2764 151.56 15.41 151.596 15.5399C151.632 15.6699 151.68 15.7854 151.738 15.8864L155.201 11.3169Z" fill="#01060B"/>
<path d="M163.73 20.2503H160.757V8.65307H161.476L162.456 10.0283C162.935 9.59514 163.48 9.26307 164.09 9.03207C164.7 8.79384 165.332 8.67473 165.985 8.67473H168.61V11.62H165.985C165.673 11.62 165.379 11.6778 165.103 11.7933C164.827 11.9088 164.587 12.0676 164.384 12.2698C164.181 12.4719 164.021 12.7101 163.905 12.9844C163.789 13.2587 163.73 13.5511 163.73 13.8615V20.2503Z" fill="#01060B"/>
</svg>
