<svg width="30" height="30" viewBox="0 0 30 30" fill="none" xmlns="http://www.w3.org/2000/svg">
<path d="M0 4.61538C0 2.06638 2.06638 0 4.61538 0H20.7692C25.8672 0 30 4.13276 30 9.23077V25.3846C30 27.9336 27.9336 30 25.3846 30H4.61538C2.06638 30 0 27.9336 0 25.3846V4.61538Z" fill="#3550DC"/>
<path d="M23.1934 17.4302C23.3616 17.4687 23.5292 17.3637 23.5678 17.1955C23.6064 17.0272 23.5014 16.8596 23.3331 16.821L23.2633 17.1256L23.1934 17.4302ZM19.0429 13.5912C19.1909 13.5024 19.2389 13.3105 19.1501 13.1625C19.0613 13.0145 18.8693 12.9665 18.7213 13.0553L18.8821 13.3232L19.0429 13.5912ZM16.0063 15.4606L15.9365 15.7651L23.1934 17.4302L23.2633 17.1256L23.3331 16.821L16.0762 15.156L16.0063 15.4606ZM16.5744 14.7079L16.7352 14.9758L19.0429 13.5912L18.8821 13.3232L18.7213 13.0553L16.4136 14.4399L16.5744 14.7079Z" fill="#A1B0FC"/>
<path d="M14.0583 5.7085C14.4544 5.69699 14.8506 5.71049 15.2449 5.74854L15.2273 5.93408C15.6133 5.97135 15.9976 6.03309 16.3777 6.11865L16.4177 5.93506C16.8027 6.02167 17.1835 6.13306 17.5583 6.26807L17.4958 6.44482C17.8589 6.57563 18.2167 6.72973 18.5662 6.90674L18.6492 6.74072C18.9996 6.91815 19.3424 7.11754 19.6755 7.34033L19.572 7.49463C19.7328 7.60216 19.8916 7.71519 20.0476 7.8335C20.1336 7.89883 20.2081 7.95904 20.2722 8.01416L20.3923 7.87256C20.6029 8.05334 20.7176 8.19644 20.7585 8.33545L20.5808 8.38818C20.5951 8.43699 20.5928 8.48707 20.5691 8.55615C20.5671 8.55906 20.5651 8.56362 20.5613 8.56885C20.5474 8.58767 20.5258 8.61458 20.4958 8.6499C20.4363 8.72026 20.3481 8.81886 20.2283 8.94775L20.363 9.07178C20.1715 9.27778 19.9054 9.55858 19.5535 9.92041L19.4207 9.7915C19.1859 10.0328 18.913 10.3109 18.6003 10.6284L18.7332 10.7593C18.484 11.0123 18.2092 11.29 17.908 11.5942L17.7761 11.4634C17.6437 11.597 17.5059 11.7355 17.363 11.8794L16.9656 12.2808L17.0984 12.4126L16.3015 13.2144L16.1687 13.0835L15.3728 13.8853L15.5056 14.0181L14.7097 14.8198L14.5769 14.688L14.1785 15.0894L14.0466 15.2222L14.1794 15.354L14.5769 15.7485L14.7097 15.6157V15.6147L15.5037 16.4038L15.3718 16.5376L16.1667 17.3257L16.2996 17.1929V17.1919L17.0935 17.981L16.9617 18.1147L17.3591 18.5093C17.5022 18.6512 17.6412 18.7882 17.7751 18.9214L17.906 18.7886C18.2052 19.0862 18.4818 19.3619 18.7351 19.6157L18.6033 19.7485C18.9127 20.0586 19.1879 20.3355 19.4275 20.5786L19.5583 20.4478C19.9043 20.7988 20.1774 21.0798 20.3757 21.2886L20.241 21.4165C20.3589 21.5407 20.4495 21.6379 20.5125 21.7085C20.5438 21.7437 20.5674 21.7714 20.5837 21.7915C20.5886 21.7975 20.5937 21.8016 20.5964 21.8052C20.6033 21.8218 20.6103 21.8411 20.6169 21.8618L20.7957 21.8042V21.8032C20.8137 21.8595 20.8262 21.9205 20.8328 21.9731L20.6482 21.9966C20.6497 22.0085 20.6499 22.0183 20.6501 22.0259C20.6503 22.0296 20.6502 22.0326 20.6501 22.0347C20.647 22.0505 20.6338 22.0878 20.5906 22.1479C20.547 22.2085 20.4826 22.2801 20.3972 22.3608L20.5242 22.4946C20.3136 22.6938 20.0112 22.9212 19.656 23.1489L19.5554 22.9917C19.2727 23.173 18.9564 23.3562 18.6277 23.5259L18.7136 23.6919C18.3881 23.8599 18.0508 24.0141 17.7234 24.144L17.655 23.9712C17.5698 24.005 17.4853 24.0369 17.4021 24.0669L17.156 24.1509C16.9661 24.2109 16.774 24.2647 16.5808 24.312L16.6248 24.4907C16.2297 24.5875 15.8295 24.6607 15.4255 24.7056L15.406 24.52C15.0104 24.564 14.6114 24.583 14.2126 24.5767L14.2097 24.7603C13.8041 24.7538 13.3988 24.7226 12.9958 24.6655L13.0222 24.4829C12.6285 24.4272 12.2369 24.3463 11.8513 24.2417L11.8025 24.4224C11.4113 24.3162 11.0265 24.1838 10.6492 24.0288L10.7205 23.8579C10.5365 23.7824 10.3541 23.7011 10.1746 23.6138H10.1755C9.92242 23.4891 9.70673 23.3769 9.51147 23.2642L9.41772 23.4253C8.98022 23.1726 8.6343 22.9128 8.19897 22.5142L8.32495 22.3784C8.16028 22.2277 7.98139 22.0557 7.77905 21.855L7.49487 21.5679C7.40684 21.4776 7.32507 21.3922 7.24878 21.3101L7.11108 21.436C6.70939 21.0034 6.4479 20.6576 6.18726 20.2124L6.34937 20.1187C6.23499 19.9233 6.1196 19.7074 5.99097 19.4526H5.99194C5.9005 19.2691 5.81468 19.083 5.73608 18.895L5.56323 18.9673C5.40147 18.5804 5.26654 18.1849 5.15796 17.7837L5.3396 17.7358C5.23243 17.34 5.15113 16.9382 5.09644 16.5337L4.90991 16.5591C4.85395 16.1451 4.82536 15.7281 4.823 15.311H5.0105C5.00816 14.9022 5.03192 14.4928 5.08179 14.0864L4.89624 14.063C4.94701 13.6496 5.02323 13.2386 5.12671 12.8335L5.30933 12.8804C5.41019 12.4854 5.53662 12.0958 5.68823 11.7144L5.51343 11.645C5.6668 11.2592 5.84457 10.8809 6.04858 10.5142L6.04956 10.5151L6.21362 10.606C6.2631 10.517 6.31444 10.4289 6.36694 10.3413L6.52905 10.0806V10.0796C6.60438 9.96095 6.69314 9.83498 6.79175 9.70459L6.64331 9.59131C6.82057 9.35699 7.02754 9.11073 7.25171 8.86768L7.3894 8.99463C7.59794 8.76854 7.82104 8.54462 8.04663 8.33447L7.9187 8.19678C8.1603 7.97172 8.40601 7.76369 8.6394 7.5835L8.75269 7.73096C8.88202 7.6311 9.00667 7.54025 9.12476 7.4624C9.2885 7.35521 9.45515 7.25485 9.6228 7.15869L9.52905 6.99658C9.87661 6.7972 10.2321 6.62137 10.5935 6.46826L10.6667 6.64014C11.0276 6.48727 11.3944 6.3574 11.7654 6.25146L11.7136 6.07178C12.0971 5.96225 12.4847 5.87648 12.8748 5.81592L12.9031 6.00146C13.2882 5.94165 13.6758 5.90629 14.0632 5.89502L14.0583 5.7085Z" stroke="#8E9AFF" stroke-width="0.375" stroke-dasharray="1.25 1.25"/>
<path d="M15.4797 16.6873L15.3033 16.4317C15.2208 16.4888 15.1265 16.542 15.0209 16.5899C14.8531 16.6634 14.6722 16.6649 14.4907 16.6059L14.3943 16.9028C13.9114 16.7459 13.5017 16.2879 13.406 15.8015L13.7097 15.7413C13.683 15.6049 13.6922 15.4739 13.7408 15.3531L13.8031 15.2354C13.8472 15.1701 13.8928 15.1081 13.9387 15.0503L13.6956 14.8563C13.8157 14.7051 13.939 14.5789 14.051 14.491L14.2427 14.736C14.2742 14.7112 14.3006 14.6935 14.3214 14.6816L14.3523 14.6662L14.3531 14.6656C14.5239 14.6186 14.6653 14.5974 14.7857 14.596L14.7825 14.2837C15.1374 14.2798 15.4183 14.4137 15.6889 14.7164L15.4558 14.9237C15.5415 15.0194 15.63 15.14 15.7243 15.2901C15.725 15.2921 15.7268 15.295 15.7282 15.2993C15.7321 15.3109 15.7368 15.3276 15.7415 15.3494L16.046 15.2851C16.0653 15.3755 16.077 15.4867 16.0777 15.5991L15.7656 15.601L15.7604 15.7292C15.7521 15.8216 15.7283 15.9099 15.6902 15.9936L15.9741 16.1228C15.8758 16.3388 15.7079 16.5293 15.4797 16.6873Z" fill="#3550DC" stroke="#636EC2" stroke-width="0.625" stroke-dasharray="1.25 1.25"/>
<path d="M22.221 21.5995C22.2306 21.5202 22.1953 21.3667 22.1503 21.2628C22.0853 21.1391 20.9656 19.9887 18.8758 17.9152L15.6964 14.7606L18.8806 11.5512C21.1368 9.27734 22.0796 8.29724 22.1286 8.16818C22.2365 7.87037 22.0968 7.64293 21.545 7.2238C18.2541 4.72879 13.8721 4.57746 10.4066 6.84619C9.52172 7.42956 8.31709 8.63372 7.75554 9.51815C5.90815 12.3852 5.69948 16.0488 7.20817 19.0762C7.73766 20.1248 8.05657 20.5597 9.03181 21.5274C10.0071 22.495 10.4494 22.8154 11.4774 23.3219C13.7021 24.4036 16.2801 24.6016 18.5969 23.8689C20.1265 23.3821 22.1437 22.1153 22.221 21.5995Z" fill="white"/>
<path d="M10.3438 17.9386L16.113 14.9386" stroke="#5F5F5F" stroke-width="0.375"/>
<path d="M15.6988 13.7584C16.3823 13.57 16.7753 13.7409 17.2055 14.4304C17.2614 14.5279 17.2903 14.7688 17.2718 14.9743C17.2348 15.3854 16.9468 15.7317 16.467 15.9496C15.5981 16.3342 14.5391 15.1489 15.0645 14.3665C15.2798 14.0477 15.5351 13.8034 15.6988 13.7584Z" fill="#FE9738"/>
<rect x="10.575" y="4.60498" width="1.38462" height="2.30769" transform="rotate(-21.7239 10.575 4.60498)" fill="white"/>
<rect x="9.65137" y="4.37549" width="2.76923" height="0.923077" rx="0.461538" transform="rotate(-25.8189 9.65137 4.37549)" fill="white"/>
<circle cx="16.2109" cy="6.44719" r="0.461538" transform="rotate(0.678039 16.2109 6.44719)" fill="#E8E8E8"/>
<circle cx="11.5742" cy="8.23864" r="0.461538" transform="rotate(0.678039 11.5742 8.23864)" fill="#E8E8E8"/>
<circle cx="8.29979" cy="11.8924" r="0.461538" transform="rotate(0.678039 8.29979 11.8924)" fill="#E8E8E8"/>
<circle cx="8.23974" cy="16.969" r="0.461538" transform="rotate(0.678039 8.23974 16.969)" fill="#E8E8E8"/>
<circle cx="11.4155" cy="21.6223" r="0.461538" transform="rotate(0.678039 11.4155 21.6223)" fill="#E8E8E8"/>
<circle cx="16.0146" cy="23.0615" r="0.461538" transform="rotate(0.678039 16.0146 23.0615)" fill="#E8E8E8"/>
</svg>
